<svg width="765" height="456" viewBox="0 0 765 456" fill="none" xmlns="http://www.w3.org/2000/svg">
<g id="logo">
<path id="Vector" d="M414.32 43.37C410.6 47.54 421.24 51.94 423.79 53.07C440.63 60.53 469.38 65.03 470.69 89.02C471.36 101.37 467.36 109.28 457.84 116.12C439.84 129.04 416.48 128.12 395.82 124.55C390.7 123.66 372.47 118.92 370.24 114.14C368.59 110.61 370.51 102.05 370.72 97.7C370.84 95.35 370.14 93.36 370.45 90.73C371.43 82.49 375.7 83.97 381.79 85.42C395.37 88.65 409.5 99.32 424.06 95.63C436.84 92.39 423.84 86.94 418.76 84.97C398.72 77.19 352.97 63.24 372.73 31.28C389.97 3.39999 431.69 6.64001 456.96 18.67C462.34 21.23 464.79 22.51 465.5 29.31C466.01 34.22 465.13 44.23 464.23 49.21C463.84 51.34 463.25 52.6 461.03 52.85C455.99 53.41 443.99 46.13 438.36 44.16C433.21 42.36 418.35 38.86 414.33 43.38L414.32 43.37Z" fill="#2D2218"/>
<path id="Vector_2" d="M326.18 138.99C324.27 137.21 323.67 132.21 322.62 129.7C319.86 123.1 318.12 125.14 312.46 124.7C307.68 124.33 302.91 123.81 298.05 124.1C296.35 124.2 291.44 124.62 290.19 125.14C284.94 127.33 287.26 139.42 279.11 140.75C269.11 140.31 257.7 142.18 248 139.46C246.67 139.09 244.11 138.48 243.69 137.03C242.67 133.51 245.86 125.4 247.19 121.82C254.63 101.9 264.73 81.71 273 62C276.53 53.6 279.57 42.98 283.31 35.17C284.78 32.1 286.96 30.03 290.07 28.93C294.25 27.45 310.33 27.53 315.22 28.05C317.78 28.32 322.42 30 324.06 32.12L366.42 136.57C366.36 139.12 365 139.94 362.75 140.27C352.8 139.84 342.25 141.81 332.36 140.92C330.71 140.77 327.39 140.1 326.19 138.98L326.18 138.99ZM300.28 96.35C301.73 96.78 307.11 96.35 309.13 96.35C309.21 96.35 310.48 95.75 310.51 95.43C309.26 91.55 308.75 87.4 307.59 83.5C307.16 82.06 305.89 76.66 304.16 76.67L298.99 93.9C298.67 94.68 299.72 96.18 300.29 96.35H300.28Z" fill="#2D2218"/>
<path id="Vector_3" d="M180.93 19.31C205.77 17 231.86 31.95 238.09 58.13C247.07 95.86 235.87 132.7 195.14 137.77C165.7 141.44 139.93 128.2 133.27 96.6C125.71 60.74 143.59 22.79 180.93 19.31ZM183.11 62.09C177.75 63.24 170.82 74.21 170.53 79.63C170.13 86.99 176.38 92.76 182.71 94.66C187.71 96.15 191.89 96.86 195.93 92.86C206.93 81.95 201.28 58.19 183.12 62.09H183.11Z" fill="#2D2218"/>
<path id="Vector_4" d="M14.73 58.52C15.85 57.14 17.94 56.47 19.61 56.17C29.4 54.42 41.28 56.37 51.09 54.23C73.2 52.76 95.07 49.2 117.28 48.99C119.29 49.22 120.34 51.6 120.98 53.32C122.5 57.38 123.64 69.81 123.49 74.33C123.41 76.65 122.73 78.47 120.57 79.23C112.47 82.08 103.78 79.91 95.54 81.55C93.08 82.04 90.99 82.61 90.19 85.35L95.74 157.82C95.74 161.91 95.18 164.03 91.01 164.85C84.49 166.14 75.08 167.1 68.43 167.26C66.18 167.31 59.85 167.3 57.99 166.78C55.82 166.17 55.07 161.47 54.75 159.35C52.21 142.28 53.25 123.96 51.15 106.76L48.46 88.53C47.86 86.9 44.55 86.37 43.05 86.3C38.25 86.1 33.44 87.05 28.79 87.4C22.03 87.9 15.72 90.3 14.13 81.28C13.34 76.81 12.03 61.8 14.71 58.5L14.73 58.52Z" fill="#2D2218"/>
<path id="Vector_5" d="M586.94 67.74C586.15 68.24 580.86 68.46 579.57 68.42C573.28 68.23 567.2 66.12 560.88 66.1C556.62 66.09 554.84 66.3 554.01 70.95C550.41 90.92 550.94 114.43 548.16 134.98C547.83 137.43 547.24 141.92 546.71 144.08C545.5 149.01 539.12 146.95 535.66 146.88C530.15 146.77 524.57 146.77 519.05 145.95C516.73 145.61 511.17 144.7 509.31 143.83C507.18 142.84 506.77 140.35 506.74 138.11C506.46 118.39 511.74 94.47 512.66 74.12C512.74 72.35 512.91 65.81 512.58 64.69C511.66 61.52 503.43 61.46 500.78 61.13C499.71 61 498.68 60.32 497.52 60.2C491.76 59.61 480.27 62.45 480.12 53.12C480.05 49 481.02 38.83 481.95 34.84C482.97 30.46 484.98 28.21 489.37 28.11C499.28 27.86 511.18 32.15 521.25 31.6C541.27 33.89 561.47 33.73 581.32 37.16C583.21 37.49 585.68 37.23 587.36 37.74C590.29 38.62 590.56 46.07 590.51 48.78C590.44 52.35 589.63 66.04 586.94 67.74Z" fill="#2D2218"/>
<path id="Vector_6" d="M685.51 78.75C685.08 79.35 683.77 80.1 683.08 80.42C677.99 82.85 662.92 83.02 656.56 83.39C651.73 83.67 644.69 81.36 642.88 88.4C641.78 92.69 642.37 97.77 647.21 97.89C656.18 98.12 666.17 95.72 675.23 95.77C684.37 95.82 684.33 99.69 684.75 108.6C684.87 111.05 684.96 116.85 684.51 119.01C683.85 122.18 681.71 123.8 678.91 124.31C669.18 126.09 657.72 125.02 647.8 126.6C643.98 127.7 643.75 138.05 648.17 138.63C659.92 140.17 674.22 135.83 686.04 136.4C688.98 136.54 690.67 138.38 691.31 141.54C692.08 145.29 692.8 157.09 691.89 160.61C691.14 163.53 689.63 164.09 687.08 164.54C674.36 166.81 657.2 166.79 644.07 167.73C636.02 168.3 622 170.81 614.6 169.15C610.1 168.14 609.38 163.57 608.75 159.12C604.44 128.81 605.65 95.31 601.75 64.68C601.29 61.74 604.21 60.06 606.39 59.53C611.86 58.22 617.84 58.28 623.4 57.64C639.85 55.76 659.22 53.21 675.72 53.18C679.97 53.17 683.7 52.58 684.65 58.01C685.41 62.35 686.57 70.92 686.45 75.14C686.42 76.19 686.07 77.97 685.5 78.76L685.51 78.75Z" fill="#2D2218"/>
<path id="Vector_7" d="M632.68 45.66C638.45 44.81 669.42 40.39 673.81 37.45C674.4 37.05 675.52 36.17 675.85 35.5C676.28 34.62 676.41 32.7 676.33 31.58C675.98 27.08 674 18.04 672.84 13.48C671.39 7.78003 668.05 8.66002 664.18 8.97002C649.14 10.18 631.76 14.25 616.95 17.41C611.95 18.48 606.49 18.84 601.65 20.62C599.72 21.33 597.24 23.34 597.97 26.43L601.28 43.3C602.1 47.46 606.72 50.12 611.67 49.27L632.7 45.66H632.68Z" fill="#2D2218"/>
<path id="Vector_8" d="M731.86 54.97C730.28 54.97 728.8 54.58 727.3 54.28C725.8 53.98 724.27 53.7 722.85 53.11C721.43 52.52 720.13 51.7 718.85 50.84C717.57 49.98 716.38 49.04 715.28 47.94C714.18 46.84 713.12 45.75 712.26 44.46C711.4 43.17 710.83 41.76 710.23 40.32C709.63 38.88 709.08 37.49 708.77 35.95C708.46 34.41 708.48 32.94 708.48 31.36C708.48 29.78 708.57 28.28 708.86 26.79C709.17 25.25 709.61 23.81 710.2 22.39C710.79 20.97 711.54 19.63 712.39 18.35C713.24 17.07 713.82 15.51 714.92 14.42C716.02 13.33 717.35 12.43 718.63 11.57C719.91 10.71 721.47 10.37 722.91 9.76999C724.35 9.16999 725.74 8.65 727.27 8.34C728.8 8.03 730.27 7.76001 731.85 7.76001C733.43 7.76001 735 7.74001 736.49 8.04001C737.98 8.34001 739.5 8.89001 740.92 9.48001C742.34 10.07 743.88 10.6 745.16 11.46C746.44 12.32 747.47 13.58 748.56 14.67C749.65 15.76 750.8 16.85 751.67 18.14C752.54 19.43 753.34 20.79 753.94 22.23C754.54 23.67 754.73 25.23 755.03 26.77C755.33 28.31 755.47 29.8 755.47 31.38C755.47 32.96 755.49 34.53 755.19 36.02C754.89 37.51 754.16 38.96 753.57 40.37C752.98 41.78 752.38 43.24 751.52 44.52C750.66 45.8 749.88 47.22 748.79 48.32C747.7 49.42 746.41 50.38 745.12 51.24C743.83 52.1 742.44 52.88 741 53.48C739.56 54.08 737.98 54.16 736.44 54.47C734.9 54.78 733.43 54.98 731.85 54.98L731.86 54.97ZM731.86 15.17C730.42 15.17 728.94 15.13 727.6 15.49C726.26 15.85 724.93 16.59 723.72 17.29C722.51 17.99 721.27 18.81 720.28 19.8C719.29 20.79 718.41 21.98 717.7 23.2C716.99 24.42 716.55 25.8 716.18 27.17C715.82 28.5 715.46 29.92 715.46 31.37C715.46 32.82 715.78 34.25 716.14 35.58C716.5 36.91 716.93 38.37 717.63 39.58C718.33 40.79 719.29 41.94 720.29 42.93C721.29 43.92 722.45 44.82 723.67 45.53C724.89 46.24 726.23 46.82 727.61 47.19C728.99 47.56 730.41 47.19 731.85 47.19C733.29 47.19 734.66 47.16 735.99 46.8C737.32 46.44 738.86 46.28 740.06 45.58C741.26 44.88 742.39 43.89 743.39 42.9C744.39 41.91 745.16 40.68 745.87 39.45C746.58 38.22 746.95 36.88 747.32 35.5C747.69 34.12 747.96 32.8 747.96 31.35C747.96 29.9 747.52 28.58 747.16 27.25C746.8 25.92 746.55 24.48 745.85 23.27C745.15 22.06 744.13 21.06 743.14 20.06C742.15 19.06 741.02 18.29 739.8 17.58C738.58 16.87 737.42 16.09 736.04 15.72C734.66 15.35 733.3 15.15 731.85 15.15L731.86 15.17Z" fill="#2D2218"/>
<path id="Vector_9" d="M740.86 23.21C739.47 22.66 737.78 22.69 736.27 22.5C734.48 22.27 732.82 22.25 731.69 22.27C730.18 22.29 728.73 22.47 727.37 22.66C725.76 22.88 724.25 22.93 723.07 23.34C721.3 23.96 720.25 26.03 720.87 27.8C721.29 29.02 722.6 29.76 723.79 29.96C724.34 31.99 723.54 32.1 723.54 34.2C723.54 36.3 723.67 36.3 723.67 38.4C723.67 39.63 724.64 40.53 725.87 40.53C727.85 40.53 727.85 40.51 729.84 40.51C731.83 40.51 731.83 40.49 733.81 40.49C735.79 40.49 735.8 40.38 737.78 40.38C739.01 40.38 739.85 39.63 739.85 38.4C739.85 36.3 739.8 36.3 739.8 34.2C739.8 32.1 739.18 31.96 739.72 29.93C740.89 29.76 742.34 29.11 742.8 27.94C743.49 26.19 742.61 23.92 740.87 23.23L740.86 23.21Z" fill="#2D2218"/>
<g id="toaster">
<path id="Vector_10" d="M243.82 443.95C240.17 443.95 240.17 443.83 236.53 443.83C232.89 443.83 232.88 443.43 229.23 443.43C225.58 443.43 225.58 443.9 221.94 443.9C218.29 443.9 218.29 443.8 214.64 443.8C210.99 443.8 210.99 444.03 207.34 444.03C204.18 444.03 201.22 442.56 198.8 440.74C196.38 438.92 194.77 436.31 193.88 433.28C192.57 428.82 192.58 428.82 191.27 424.36C189.96 419.9 189.46 420.05 188.15 415.6C187.65 413.9 187.93 411.85 188.99 410.44C190.05 409.02 191.94 408.6 193.71 408.6C197.66 408.6 197.66 408.31 201.61 408.31C205.56 408.31 205.56 408.58 209.51 408.58C213.46 408.58 213.46 408.53 217.41 408.53C221.36 408.53 221.36 408.42 225.31 408.42C229.26 408.42 229.26 408.19 233.21 408.19C237.16 408.19 237.16 408.48 241.11 408.48C245.06 408.48 245.06 408.25 249.02 408.25C252.98 408.25 252.97 408.52 256.93 408.52C258.67 408.52 260.57 408.98 261.63 410.35C262.69 411.73 262.56 413.66 262.12 415.34C260.96 419.73 261.42 419.85 260.26 424.25C259.1 428.65 258.94 428.6 257.78 433C256.95 436.15 255.08 438.84 252.63 440.73C250.18 442.62 247.1 443.97 243.84 443.97L243.82 443.95ZM202 419.79C201.37 422.29 202.93 424.83 204.49 430.15C204.88 431.48 205.95 432.68 207.33 432.68C210.98 432.68 210.98 432.21 214.62 432.21C218.26 432.21 218.27 432.31 221.92 432.31C225.57 432.31 225.57 432.08 229.21 432.08C232.85 432.08 232.86 432.51 236.51 432.51C240.16 432.51 240.16 432.76 243.81 432.76C245.23 432.76 246.8 431.57 247.16 430.19C248.55 424.92 250.26 422.04 249.72 421.02C248.5 418.69 245.58 419.84 241.55 419.84C237.52 419.84 237.51 419.32 233.48 419.32C229.45 419.32 229.44 419.61 225.41 419.61C221.38 419.61 221.37 419.34 217.34 419.34C213.31 419.34 212.79 419.79 208.72 419.16C204.39 418.49 202.47 417.88 201.99 419.79H202Z" fill="#2D2218"/>
<path id="Vector_11" d="M580.29 414.88C578.95 412.82 576.63 411.41 574.12 409.88C572.07 408.63 569.83 407.16 567.06 406.21C564.73 405.42 562.07 405.08 559.27 404.48C556.82 403.96 554.29 402.92 551.5 402.53C548.99 402.17 545.08 402.35 542.3 402.09L533.71 404.67L367.86 407.08L252.75 403.82C251.8 407.76 251.72 407.74 250.77 411.69C249.82 415.63 249.51 415.56 248.57 419.5C247.62 423.44 248.31 423.61 247.37 427.55C246.42 431.49 245.87 431.36 244.92 435.3C243.97 439.24 238.53 439.06 240.97 442.29C243.33 445.42 246.52 443.34 250.44 443.34C254.36 443.34 255.05 443.11 258.97 443.11C262.89 443.11 262.89 443.35 266.81 443.36C270.73 443.36 270.73 443.64 274.65 443.64C278.57 443.64 278.57 443.17 282.49 443.17C286.41 443.17 286.41 443.64 290.33 443.64C294.25 443.64 294.25 443.46 298.17 443.47C302.09 443.47 302.09 443.65 306.01 443.65C309.93 443.65 309.93 443.17 313.85 443.18C317.77 443.18 317.77 443 321.69 443.01C325.61 443.01 325.61 443.06 329.53 443.07C333.45 443.07 333.45 443.22 337.37 443.22C341.29 443.22 341.29 443.39 345.21 443.39C349.13 443.39 349.13 443.7 353.05 443.7C356.97 443.7 356.97 443.28 360.89 443.29C364.81 443.29 364.81 443.56 368.72 443.56C372.64 443.56 372.64 443.27 376.56 443.27C380.48 443.27 380.48 443.18 384.39 443.18C388.31 443.18 388.31 443.21 392.23 443.22C396.15 443.22 396.15 443.53 400.06 443.53C403.98 443.53 403.98 443.69 407.89 443.71C410.54 443.76 413.17 443.21 415.79 443.25C418.44 443.3 421.06 443.76 423.68 443.8C426.33 443.84 428.96 443.78 431.57 443.82C434.22 443.86 436.85 443.81 439.46 443.84C442.11 443.87 444.74 443.62 447.35 443.64C450 443.66 452.63 444.14 455.23 444.16C457.88 444.17 460.51 443.93 463.12 443.93C465.78 443.93 468.41 444.49 471.01 444.48C473.67 444.48 476.3 443.82 478.89 443.8C481.55 443.78 484.19 444.03 486.78 443.99C489.45 443.95 492.07 443.57 494.66 443.51C497.33 443.45 499.96 443.28 502.54 443.19C505.22 443.1 507.86 443.35 510.43 443.24C513.11 443.12 515.74 443.02 518.3 442.87C520.99 442.72 523.61 442.48 526.16 442.3C528.86 442.1 531.46 441.74 534 441.5C536.71 441.25 539.36 441.31 541.88 441.01C544.6 440.68 547.14 439.84 549.62 439.45C552.36 439.02 554.94 438.59 557.37 438.08C560.13 437.5 562.68 436.95 565.01 436.26C567.79 435.44 570.46 435.06 572.6 434.07C575.36 432.8 577.2 430.87 578.82 429.29C580.91 427.24 582.41 425.18 582.42 422.57C582.42 419.7 581.76 417.05 580.33 414.86L580.29 414.88ZM523.75 422.69C522.59 427.09 522.87 427.16 521.71 431.55C520.7 435.39 517.14 437.76 513.17 437.76C509.52 437.76 509.52 437.84 505.88 437.84C502.24 437.84 502.23 438.16 498.58 438.16C494.93 438.16 494.93 438.13 491.29 438.13C487.65 438.13 487.64 438.05 483.99 438.05C480.34 438.05 480.34 437.79 476.69 437.79C472.81 437.79 469.11 435.58 468.02 431.86C466.71 427.4 466.95 427.33 465.64 422.88C464.33 418.42 460.68 417.95 463.05 413.95C465.06 410.55 467.01 414.04 470.96 414.04C474.91 414.04 474.91 414.23 478.86 414.23C482.81 414.23 482.81 413.9 486.76 413.9C490.71 413.9 490.71 413.73 494.66 413.73C498.61 413.73 498.61 413.61 502.56 413.61C506.51 413.61 506.51 413.83 510.46 413.83C514.41 413.83 514.41 414.36 518.37 414.36C522.33 414.36 524.41 410.47 526.53 413.81C528.97 417.65 524.92 418.32 523.77 422.71L523.75 422.69Z" fill="#2D2218"/>
<path id="Vector_12" d="M513.17 444.01C509.52 444.01 509.52 443.42 505.88 443.42C502.24 443.42 502.23 443.38 498.58 443.38C494.93 443.38 494.93 443.35 491.29 443.35C488.857 443.35 486.423 443.35 483.99 443.35C480.34 443.35 480.34 443.5 476.69 443.5C473.53 443.5 470.65 442.45 468.22 440.64C465.79 438.83 463.81 436.41 462.91 433.38C461.6 428.92 461.81 428.86 460.5 424.41C459.19 419.95 458.74 420.09 457.43 415.63C456.93 413.93 457.25 411.84 458.31 410.43C459.37 409.01 461.29 408.54 463.05 408.54C467 408.54 467 408.07 470.95 408.07C474.9 408.07 474.9 408.65 478.85 408.65C482.8 408.65 482.8 408.7 486.75 408.7C490.7 408.7 490.7 408.69 494.65 408.69C498.6 408.69 498.6 408.73 502.55 408.73C506.5 408.73 506.5 408.68 510.45 408.68C514.4 408.68 514.4 408.48 518.36 408.48C522.32 408.48 522.31 408.23 526.27 408.23C528.01 408.23 529.92 408.98 530.98 410.36C532.04 411.74 531.75 413.64 531.3 415.32C530.14 419.71 530.72 419.87 529.56 424.26C528.4 428.65 528.38 428.65 527.22 433.04C526.39 436.19 524.19 438.57 521.74 440.45C519.29 442.34 516.43 444.04 513.17 444.04V444.01ZM470.86 419.71C469.78 422.33 471.88 424.95 473.44 430.26C473.83 431.59 475.3 432.73 476.68 432.73C480.33 432.73 480.33 432.76 483.97 432.76C487.61 432.76 487.62 432.76 491.27 432.76C494.92 432.76 494.92 432.61 498.56 432.61C502.2 432.61 502.21 432.64 505.86 432.64C509.51 432.64 509.51 432.44 513.16 432.44C514.58 432.44 516.03 431.54 516.39 430.17C517.78 424.9 519.97 422.87 518.74 419.69C518.26 418.45 514.93 419.89 510.9 419.89C506.86 419.89 506.86 419.4 502.83 419.4C498.79 419.4 498.79 419.87 494.76 419.87C490.72 419.87 490.72 419.29 486.69 419.29C482.66 419.29 482.72 419.5 478.69 419.25C474.97 419.02 471.43 418.31 470.85 419.72L470.86 419.71Z" fill="#2D2218"/>
<path id="Vector_13" d="M557.8 271.82C553.61 271.82 553.61 271.55 549.42 271.55C545.23 271.55 545.23 272.02 541.04 272.02C536.85 272.02 536.85 271.89 532.65 271.89C529.857 271.89 527.06 271.89 524.26 271.89C521.16 271.89 518.27 269.2 518.27 266.1C518.27 263 521.16 260.69 524.26 260.69C528.45 260.69 528.45 260.65 532.64 260.65C536.83 260.65 536.83 260.8 541.02 260.8C545.21 260.8 545.21 260.58 549.41 260.58C553.61 260.58 553.6 260.8 557.8 260.8C559.75 260.8 561.43 259.53 562.57 257.95C563.71 256.37 564.39 254.38 563.78 252.53C562.78 249.51 562.51 249.6 561.51 246.58C560.7 244.12 558.4 242.41 555.81 242.41C551.54 242.41 551.54 242.59 547.28 242.59C543.02 242.59 543.01 242.77 538.74 242.77C534.47 242.77 534.47 242.54 530.21 242.54C525.95 242.54 525.94 242.46 521.67 242.46C517.4 242.46 521.29 242.52 517.02 242.52C513.92 242.52 513.45 240.74 513.45 237.65C513.45 234.56 510.04 231.2 513.14 231.2C517.41 231.2 517.41 231.47 521.67 231.47C525.93 231.47 525.94 231.23 530.21 231.23C534.48 231.23 534.48 231.5 538.74 231.5C543 231.5 543.01 231.34 547.28 231.34C551.55 231.34 551.55 231.6 555.82 231.6C558.28 231.6 560.69 231.69 562.84 232.64C564.99 233.59 566.74 235.34 568.35 237.12C569.93 238.86 571.31 240.77 572.08 243.11C573.08 246.13 573.24 246.08 574.24 249.1C575.11 251.75 575.45 254.55 575.04 257.19C574.63 259.83 573.53 262.44 571.9 264.71C570.26 266.97 567.97 268.53 565.59 269.74C563.21 270.95 560.61 271.81 557.81 271.81L557.8 271.82Z" fill="#2D2218"/>
<path id="Vector_14" d="M524.33 266.02C528.31 268.61 529.79 268.74 533.58 265.87C536.59 263.59 534.03 262.35 534.26 258.59C534.49 254.83 534.51 254.83 534.74 251.06C534.97 247.29 534.79 247.28 535.02 243.51C535.25 239.74 538.49 238.38 535.55 236.01C531.72 232.93 530.66 235.93 525.75 235.93C520.84 235.93 519.34 232.44 515.81 235.86C513.01 238.59 516.7 239.81 517.74 243.58C518.78 247.35 518.79 247.34 519.83 251.11C520.87 254.88 521.51 254.7 521.8 258.6C522.11 262.69 521.05 263.88 524.33 266.01V266.02Z" fill="#2D2218"/>
<path id="Vector_15" d="M181.86 307.69C181.45 307.69 181.07 307.46 180.66 307.37C177.64 306.69 175.58 305.02 176.26 302C177.15 298.02 177.23 296.72 178.13 292.74C179.03 288.76 179 288.85 179.89 284.87C180.78 280.89 180.61 280.85 181.5 276.87C182.39 272.89 182.43 272.9 183.33 268.92C184.22 264.94 184.64 265.03 185.53 261.05C186.42 257.07 186.42 257.06 187.28 253.07C187.8 250.31 188.02 247.54 188.71 244.95C189.4 242.36 190.11 239.55 191.01 237.02C191.96 234.37 193.39 231.98 194.52 229.55C195.65 227.12 196.74 224.43 198.12 222.13C199.5 219.83 201.41 217.65 203.06 215.53C204.71 213.41 206.34 211.02 208.28 209.14C210.22 207.26 212.8 205.96 215.01 204.37C217.22 202.78 219.47 201.2 221.91 199.98C224.35 198.76 226.78 197.45 229.41 196.61C232.04 195.77 234.68 195.17 237.44 194.74C240.14 194.31 242.87 194.19 245.54 193.79C248.21 193.39 250.95 193.13 253.63 192.76C256.31 192.39 258.99 191.72 261.67 191.37C264.35 191.02 267.06 190.53 269.74 190.21C272.42 189.89 275.21 190.12 277.9 189.82C280.59 189.52 283.3 189.17 286 188.91C288.7 188.65 291.39 188.18 294.09 187.94C296.79 187.7 299.5 187.36 302.2 187.15C304.9 186.94 307.64 186.97 310.34 186.79C313.04 186.61 315.74 186.04 318.45 185.89C321.16 185.74 323.9 186.14 326.61 186.02C329.32 185.9 332.01 185.19 334.73 185.11C337.45 185.03 340.17 185.65 342.89 185.59C345.61 185.53 348.31 184.93 351.03 184.91C353.75 184.89 356.46 185.21 359.18 185.21C361.9 185.21 364.5 184.81 367.12 184.84C369.74 184.87 372.44 185.11 375.05 185.17C377.66 185.23 380.38 185.19 382.98 185.27C385.58 185.35 388.29 185.88 390.89 185.99C393.49 186.1 396.23 185.97 398.83 186.11C401.43 186.25 404.14 186.72 406.73 186.89C409.32 187.06 412.08 186.86 414.67 187.05C417.26 187.24 420 187.38 422.59 187.6C425.18 187.82 427.86 188.62 430.44 188.88C433.02 189.14 435.82 188.88 438.38 189.17C441.08 189.47 443.7 189.82 446.26 190.13C448.97 190.46 451.57 190.92 454.11 191.26C456.82 191.62 459.49 191.64 462.01 192C464.74 192.39 467.27 193.33 469.77 193.71C472.51 194.13 475.19 194.11 477.66 194.52C480.34 194.96 482.93 195.74 485.44 196.56C487.95 197.38 490.45 198.48 492.83 199.7C495.21 200.92 497.44 202.38 499.62 203.96C501.8 205.54 503.64 207.39 505.59 209.29C507.54 211.19 509.2 213.11 510.9 215.26C512.6 217.41 514.23 219.35 515.67 221.69C517.11 224.03 518.67 226.08 519.88 228.54C521.09 231 521.57 233.57 522.57 236.13C523.57 238.69 524.87 240.92 525.68 243.55C526.49 246.18 527.05 248.67 527.68 251.34C527.68 251.37 527.83 251.38 527.84 251.41C528.73 255.49 528.2 255.61 529.09 259.69C529.98 263.77 530.32 263.7 531.21 267.78C532.1 271.86 531.86 271.92 532.75 276C533.64 280.08 534.17 279.97 535.05 284.05C535.93 288.13 535.77 288.07 536.66 292.16C537.55 296.24 537.27 296.82 538.16 300.9C538.82 303.93 536.98 306.41 533.96 307.07C530.93 307.72 528.04 305.85 527.38 302.83C526.49 298.75 526.04 298.85 525.15 294.78C524.26 290.7 524.72 290.6 523.83 286.52C522.94 282.44 522.66 282.5 521.77 278.42C520.88 274.34 520.84 274.35 519.96 270.27C519.367 267.55 518.773 264.83 518.18 262.11C517.29 258.03 517.36 258.01 516.46 253.94C515.88 251.48 515.71 248.59 514.78 245.71C513.97 243.18 512.62 240.66 511.49 237.98C510.43 235.47 509.35 232.87 507.97 230.38C506.59 227.89 504.94 225.72 503.27 223.45C501.6 221.18 499.9 219.01 497.89 217.05C495.88 215.09 493.77 213.31 491.4 211.76C489.03 210.21 486.57 209.09 483.9 208.06C481.39 207.09 478.68 206.55 475.8 206.08C473.36 205.68 470.82 205.13 468.11 204.71C465.65 204.33 463.07 203.96 460.38 203.58C457.9 203.22 455.34 202.74 452.66 202.39C450.16 202.06 447.58 201.73 444.92 201.41C442.41 201.1 439.84 200.59 437.19 200.3C434.54 200.01 432.07 199.77 429.42 199.51C426.77 199.25 424.27 199.26 421.62 199.02C418.97 198.78 416.48 198.6 413.84 198.4C411.2 198.2 408.71 197.77 406.07 197.6C403.43 197.43 400.92 197.15 398.28 197.01C395.64 196.87 393.1 197.11 390.46 197C387.82 196.89 385.3 196.72 382.66 196.63C380.02 196.54 377.49 196.29 374.85 196.23C372.21 196.17 369.67 196.21 367.03 196.18C364.39 196.15 361.85 196.18 359.21 196.18C356.57 196.18 353.84 196.11 351.17 196.13C348.5 196.15 345.82 196.66 343.14 196.71C340.46 196.76 337.78 196.6 335.1 196.69C332.42 196.78 329.76 197.17 327.08 197.28C324.4 197.39 321.73 197.5 319.06 197.65C316.39 197.8 313.72 197.9 311.04 198.08C308.36 198.26 305.71 198.53 303.04 198.73C300.37 198.93 297.66 198.62 294.99 198.85C292.32 199.08 289.69 199.64 287.02 199.9C284.35 200.16 281.67 200.08 278.99 200.37C276.31 200.66 273.75 201.55 271.08 201.86C268.41 202.17 265.75 202.29 263.08 202.64C260.41 202.99 257.75 203.06 255.08 203.43C252.41 203.8 249.85 204.6 247.18 204.99C244.51 205.38 241.89 205.74 239.23 206.16C236.68 206.56 234.13 206.83 231.75 207.66C229.37 208.49 227.19 209.89 224.97 211.15C222.75 212.41 220.55 213.62 218.56 215.27C216.63 216.87 214.72 218.56 213 220.52C211.28 222.48 209.9 224.49 208.46 226.67C207.02 228.85 205.93 231 204.76 233.35C203.66 235.57 202.93 238.01 202.02 240.46C201.15 242.78 200.01 245.07 199.32 247.6C198.67 250 198.35 252.53 197.86 255.1C197.85 255.16 197.93 255.29 197.92 255.35C197.03 259.34 197.06 259.34 196.16 263.33C195.26 267.32 195 267.26 194.1 271.25C193.2 275.24 193.25 275.25 192.35 279.24C191.45 283.23 191.6 283.26 190.7 287.25C189.8 291.24 189.63 291.2 188.74 295.19C187.85 299.18 188.24 299.27 187.34 303.26C186.75 305.87 184.39 307.68 181.83 307.68L181.86 307.69Z" fill="#2D2218"/>
<path id="Vector_16" d="M476.77 218.65C475.31 215.19 472.04 213.14 468.34 212.51C465.75 212.07 463.17 211.65 460.6 211.25C458 210.84 455.47 210.16 452.89 209.78C450.29 209.4 447.71 209.02 445.13 208.67C442.53 208.32 439.9 208.28 437.31 207.97C434.71 207.65 432.13 207.23 429.54 206.94C426.94 206.65 424.36 206.2 421.76 205.95C419.16 205.7 416.53 205.74 413.93 205.52C411.32 205.3 408.75 204.7 406.14 204.51C403.53 204.32 400.9 204.51 398.29 204.36C395.68 204.21 393.1 203.68 390.48 203.55C387.87 203.43 385.26 203.29 382.64 203.2C380.03 203.11 377.42 203.05 374.8 202.99C372.2 202.93 369.58 203.31 366.95 203.28C364.35 203.25 361.74 203.26 359.11 203.26C356.48 203.26 353.73 202.81 351.05 202.84C348.36 202.87 345.67 202.73 342.98 202.79C340.29 202.85 337.62 203.42 334.93 203.52C332.25 203.62 329.54 203.24 326.85 203.37C324.17 203.5 321.5 203.99 318.81 204.15C316.13 204.31 313.47 204.8 310.79 205C308.11 205.19 305.44 205.39 302.75 205.61C300.08 205.83 297.37 205.71 294.69 205.97C292.02 206.23 289.39 206.9 286.71 207.19C284.04 207.48 281.35 207.51 278.67 207.83C276.01 208.15 273.36 208.6 270.68 208.94C268.02 209.29 265.37 209.73 262.7 210.11C260.05 210.48 257.4 210.95 254.73 211.36C252.08 211.76 249.36 211.73 246.69 212.17C242.96 212.78 239.86 215.33 238.29 218.78L238.24 218.79C238.07 219.19 237.44 220.98 238.35 222.13C239.26 223.28 241.44 224.55 249.01 223.45C250.47 223.15 254.9 222.44 256.37 222.21C259 221.81 261.59 221.24 264.2 220.88C266.83 220.51 269.42 219.91 272.03 219.57C274.66 219.23 277.31 219.05 279.93 218.74C282.56 218.43 285.22 218.39 287.84 218.11C290.48 217.83 293.11 217.58 295.73 217.32C298.37 217.07 301.02 217.03 303.65 216.81C306.29 216.59 308.91 216.25 311.55 216.06C314.19 215.87 316.8 215.24 319.44 215.08C322.08 214.92 324.73 214.82 327.37 214.69C330.01 214.56 332.66 214.59 335.31 214.5C337.95 214.4 340.6 214.25 343.24 214.18C345.88 214.12 348.53 214.1 351.18 214.07C353.82 214.04 356.47 213.84 359.12 213.84C361.9 213.84 364.67 214.02 367.43 214.05C370.21 214.08 372.97 214.54 375.72 214.61C378.49 214.68 381.25 214.85 384.01 214.96C386.78 215.06 389.55 215.02 392.31 215.16C395.08 215.3 397.86 215.16 400.61 215.34C403.37 215.52 406.15 215.54 408.91 215.75C411.67 215.96 414.42 216.35 417.17 216.6C419.92 216.85 422.66 217.29 425.42 217.58C428.17 217.87 430.92 218.17 433.67 218.5C436.41 218.82 439.2 218.86 441.95 219.22C444.68 219.58 447.43 219.96 450.18 220.36C452.91 220.75 455.6 221.46 458.35 221.89C461.07 222.32 463.8 222.78 466.54 223.25C466.56 223.25 466.99 223.31 467 223.33C467.03 223.39 468.9 223.48 468.93 223.53C473.14 223.82 475.15 224.04 476.59 222.82C478.03 221.6 477.49 220.38 476.77 218.67V218.65Z" fill="#2D2218"/>
<path id="Vector_17" d="M481.54 233.24C481.47 233.08 481.41 232.92 481.34 232.8C480.62 231.64 478.89 230.45 476.82 230.19C473.75 229.81 470.38 229.53 467.47 228.8L467.44 228.79C464.99 228.42 462.31 227.88 459.65 227.5C457.18 227.15 454.58 227.08 451.93 226.74C449.44 226.42 446.93 225.7 444.29 225.39C441.79 225.09 439.18 225.16 436.55 224.88C434.04 224.61 431.51 223.96 428.88 223.7C426.36 223.46 423.79 223.19 421.16 222.97C418.64 222.75 416.06 222.56 413.43 222.37C410.9 222.18 408.29 222.43 405.67 222.26C403.13 222.1 400.56 221.98 397.93 221.84C395.39 221.71 392.83 221.12 390.21 221.01C387.66 220.9 385.08 220.62 382.46 220.54C379.91 220.46 377.31 220.88 374.69 220.83C372.14 220.78 369.56 220.25 366.95 220.22C364.4 220.19 361.81 220.53 359.19 220.53C356.57 220.53 353.86 220.86 351.2 220.89C348.53 220.92 345.87 220.94 343.21 221C340.54 221.05 337.87 220.76 335.22 220.85C332.56 220.93 329.91 221.44 327.25 221.55C324.59 221.66 321.92 221.52 319.26 221.66C316.6 221.8 313.95 222.07 311.29 222.24C308.63 222.41 305.99 222.68 303.33 222.87C300.68 223.07 298.03 223.36 295.37 223.59C292.72 223.82 290.03 223.6 287.37 223.86C284.73 224.11 282.09 224.55 279.43 224.83C276.79 225.11 274.16 225.57 271.5 225.88C268.86 226.19 266.16 226 263.5 226.33C260.87 226.66 258.22 226.97 255.56 227.34C252.93 227.7 250.5 228.18 247.85 228.57C247.63 228.42 243.94 229.39 243.95 229.28C238.94 230.08 237.25 230.4 234.65 232.05C233.97 232.48 233.51 233.04 233.19 233.77C232.34 235.65 232.36 237.82 233.61 239.46C234.68 240.87 236.56 241.44 238.3 241.44C238.59 241.44 238.86 241.34 239.15 241.29C241.81 240.87 244.54 240.97 247.17 240.58C249.84 240.18 252.38 239.08 255.02 238.72C257.69 238.35 260.37 238.22 263.01 237.88C265.68 237.53 268.38 237.54 271.02 237.22C273.69 236.9 276.35 236.59 279 236.3C281.67 236.01 284.31 235.53 286.97 235.27C289.64 235.01 292.34 235.15 295 234.92C297.67 234.69 300.28 233.74 302.95 233.53C305.62 233.33 308.3 233.24 310.97 233.06C313.64 232.89 316.33 232.84 319 232.7C321.67 232.56 324.37 232.89 327.05 232.77C329.72 232.66 332.39 232.32 335.07 232.23C337.74 232.14 340.42 231.89 343.1 231.83C345.77 231.77 348.45 231.49 351.13 231.46C353.8 231.43 356.48 231.57 359.17 231.57C361.86 231.57 364.41 231.85 366.99 231.87C369.63 231.9 372.23 231.96 374.8 232.01C377.44 232.07 380.04 232.33 382.6 232.41C385.24 232.49 387.85 232.46 390.41 232.57C393.05 232.68 395.68 232.35 398.23 232.49C400.87 232.63 403.47 232.83 406.03 233C408.67 233.17 411.26 233.5 413.81 233.69C416.46 233.89 419.06 234.03 421.6 234.25C424.25 234.48 426.84 234.75 429.38 235C432.03 235.26 434.64 235.35 437.17 235.63C439.83 235.92 442.4 236.38 444.91 236.69C447.57 237.01 450.1 237.75 452.6 238.08C455.27 238.44 457.83 238.88 460.32 239.24C463 239.63 465.6 239.85 468.07 240.23C470.77 240.65 473.39 240.76 475.83 241.16C477.9 241.5 479.71 240.59 480.97 238.89C482.23 237.19 482.36 235.08 481.52 233.24H481.54Z" fill="#2D2218"/>
<path id="Vector_18" d="M522.83 414.01C518.82 414.01 518.82 414.02 514.81 414.02C510.8 414.02 510.8 413.76 506.79 413.76C502.78 413.76 502.78 413.97 498.77 413.97C494.76 413.97 494.76 414.02 490.75 414.02C486.74 414.02 486.74 414.13 482.73 414.13C478.72 414.13 478.72 413.99 474.71 413.99C470.7 413.99 470.7 414.13 466.69 414.13C462.68 414.13 462.68 413.92 458.67 413.92C454.66 413.92 454.66 414.39 450.65 414.39C446.64 414.39 446.64 414.24 442.63 414.24C438.62 414.24 438.62 414.19 434.61 414.19C430.6 414.19 430.6 413.85 426.59 413.85C422.58 413.85 422.58 414.35 418.57 414.35C414.56 414.35 414.56 414.33 410.55 414.33C406.54 414.33 406.54 414.17 402.53 414.17C398.52 414.17 398.52 413.66 394.51 413.66C390.5 413.66 390.5 414.32 386.49 414.32C382.48 414.32 382.48 414.15 378.47 414.15C374.46 414.15 374.46 414.02 370.45 414.02C366.44 414.02 366.44 414.28 362.43 414.28C358.42 414.28 358.42 414.35 354.41 414.35C350.4 414.35 350.4 414.3 346.39 414.3C342.38 414.3 342.38 414.39 338.37 414.39C334.36 414.39 334.36 414.01 330.35 414.01C326.34 414.01 326.34 413.64 322.33 413.64C318.32 413.64 318.32 414.19 314.31 414.19C310.3 414.19 310.3 414.41 306.28 414.41C302.27 414.41 302.27 413.97 298.25 413.97C294.23 413.97 294.24 414.38 290.22 414.38C286.2 414.38 286.21 413.94 282.19 413.94C278.17 413.94 278.18 413.63 274.16 413.63C270.14 413.63 270.15 413.82 266.13 413.82C262.11 413.82 262.12 413.84 258.1 413.84C254.08 413.84 254.09 414.16 250.07 414.16C246.05 414.16 246.06 414.22 242.04 414.22C238.03 414.22 238.03 414.12 234.01 414.12C230 414.12 230 414.33 225.98 414.33C221.96 414.33 221.96 414.33 217.95 414.33C213.94 414.33 213.94 414.06 209.92 414.06C205.9 414.06 205.9 413.95 201.89 413.95C197.88 413.95 197.87 414.1 193.86 414.1C190.74 414.1 187.56 413.75 184.79 412.56C182.02 411.37 179.62 409.27 177.47 407.01C175.32 404.74 173.37 402.23 172.32 399.4C171.28 396.57 170.83 393.38 170.99 390.26C171.21 386.14 171.77 386.17 171.98 382.04C172.19 377.91 172.02 377.91 172.23 373.78C172.45 369.66 172.39 369.65 172.61 365.53C172.83 361.41 172.66 361.4 172.88 357.28C173.1 353.16 173.25 353.17 173.47 349.04C173.69 344.91 173.59 344.91 173.8 340.79C174.01 336.67 174.49 336.69 174.7 332.56C174.91 328.43 174.84 328.73 175.06 324.61C175.28 320.49 175.27 320.19 175.49 316.06C175.71 311.93 175.59 311.93 175.8 307.8C175.94 305.16 176.16 302.56 176.61 300.01C177.06 297.46 177.88 294.94 178.65 292.46C179.42 289.98 180.08 287.41 181.16 285.04C182.24 282.67 183.27 280.2 184.64 277.98C186.01 275.76 187.7 273.7 189.34 271.66C190.98 269.62 192.72 267.64 194.6 265.82C196.48 264 198.33 262.08 200.42 260.5C202.51 258.92 205.11 258.12 207.38 256.81C209.65 255.5 211.72 253.84 214.14 252.82C216.56 251.8 219.1 251.19 221.64 250.48C224.18 249.77 226.62 248.8 229.24 248.41C231.94 248.01 234.71 248.15 237.39 247.78C240.07 247.41 242.73 246.57 245.41 246.21C248.09 245.85 250.88 246 253.56 245.67C256.24 245.34 258.98 245.14 261.67 244.84C264.36 244.54 267.04 243.88 269.74 243.6C272.44 243.32 275.2 243.48 277.9 243.22C280.6 242.96 283.31 242.65 286.01 242.42C288.71 242.19 291.42 241.77 294.12 241.57C296.82 241.37 299.54 241.1 302.25 240.92C304.96 240.74 307.66 240.25 310.37 240.09C313.08 239.93 315.81 239.91 318.52 239.78C321.23 239.65 323.94 239.37 326.66 239.27C329.38 239.17 332.1 239.25 334.82 239.17C337.54 239.09 340.26 239.34 342.98 239.29C345.7 239.24 348.41 239.15 351.13 239.12C353.85 239.09 356.56 239.04 359.28 239.04C362 239.04 364.6 239.24 367.21 239.27C369.89 239.29 372.54 238.86 375.15 238.91C377.83 238.96 380.47 239.2 383.08 239.27C385.69 239.34 388.4 239.49 391.01 239.59C393.62 239.69 396.32 240.17 398.92 240.29C401.52 240.41 404.27 240.15 406.87 240.29C409.56 240.44 412.19 240.66 414.79 240.83C417.39 241 420.12 241.16 422.71 241.36C425.3 241.56 428.03 241.9 430.61 242.12C433.19 242.34 435.98 242.12 438.56 242.36C441.14 242.6 443.87 243.06 446.44 243.33C449.14 243.62 451.79 243.79 454.34 244.09C457.05 244.41 459.68 244.66 462.23 244.98C464.94 245.32 467.5 246.16 470.03 246.51C472.75 246.88 475.34 247.44 477.86 247.8C480.6 248.2 483.21 248.61 485.69 248.99C488.48 249.42 491.35 249.49 494.05 250.29C496.75 251.09 499.29 252.4 501.86 253.56C504.43 254.72 507.01 255.86 509.41 257.34C511.81 258.82 513.92 260.69 516.1 262.48C518.28 264.27 520.29 266.19 522.21 268.26C524.13 270.33 526.35 272.18 527.97 274.48C529.59 276.78 530.84 279.37 532.13 281.87C533.42 284.37 534.53 286.98 535.48 289.63C536.43 292.28 536.85 295.08 537.44 297.83C538.03 300.58 538.68 303.31 538.9 306.13C539.22 310.31 539.35 310.3 539.67 314.48C539.99 318.66 540.18 318.64 540.49 322.82C540.81 327 540.66 327.01 540.98 331.19C541.3 335.37 541.44 335.36 541.76 339.53C542.08 343.7 541.61 343.74 541.92 347.92C542.24 352.1 542.08 352.11 542.4 356.29C542.72 360.47 542.8 360.46 543.12 364.64C543.44 368.82 543.55 368.81 543.87 372.99C544.19 377.17 544.69 377.13 545.01 381.32C545.33 385.51 545.21 385.51 545.53 389.69C545.77 392.81 544.9 395.85 543.88 398.75C542.86 401.65 541.26 404.2 539.13 406.5C537 408.8 534.75 410.97 531.93 412.2C529.11 413.43 525.98 413.95 522.85 413.95L522.83 414.01ZM359.26 250.2C356.57 250.2 353.88 250.23 351.21 250.25C348.52 250.27 345.83 250.05 343.15 250.1C340.47 250.15 337.78 250.42 335.1 250.49C332.42 250.56 329.73 250.7 327.05 250.8C324.37 250.9 321.69 251.13 319.01 251.25C316.33 251.38 313.64 251.38 310.96 251.53C308.28 251.68 305.61 251.99 302.93 252.17C300.25 252.35 297.56 252.33 294.88 252.54C292.2 252.75 289.57 253.43 286.89 253.66C284.21 253.89 281.54 253.98 278.86 254.24C276.18 254.5 273.52 254.71 270.85 254.99C268.18 255.27 265.49 255.22 262.81 255.52C260.13 255.82 257.55 256.64 254.87 256.97C252.19 257.3 249.56 257.61 246.89 257.96C244.22 258.31 241.56 258.51 238.89 258.89C236.22 259.27 233.51 259.14 230.84 259.53C228.21 259.92 225.78 261.15 223.3 261.91C220.82 262.67 218.29 263.49 215.94 264.64C213.59 265.79 211.24 267.01 209.09 268.5C206.94 269.99 205.06 271.85 203.15 273.65C201.24 275.45 199.55 277.42 197.93 279.49C196.32 281.56 194.84 283.69 193.55 285.98C192.26 288.27 191.26 290.64 190.33 293.12C189.4 295.6 188.33 297.96 187.79 300.56C187.26 303.1 186.55 305.7 186.41 308.36C186.19 312.48 186.74 312.51 186.53 316.64C186.31 320.76 186.53 320.77 186.32 324.9C186.1 329.02 185.66 329 185.45 333.12C185.23 337.24 185.64 337.26 185.43 341.39C185.21 345.51 184.78 345.49 184.56 349.61C184.34 353.73 184.04 353.72 183.82 357.84C183.6 361.97 183.79 361.97 183.58 366.1C183.36 370.22 183.39 370.22 183.17 374.35C182.95 378.48 183.28 378.49 183.06 382.62C182.84 386.75 182.9 386.75 182.69 390.88C182.53 394.02 183.5 396.92 185.66 399.2C187.82 401.48 190.67 402.5 193.81 402.5C196.483 402.5 199.157 402.5 201.83 402.5C205.84 402.5 205.84 402.77 209.85 402.77C213.86 402.77 213.86 402.88 217.87 402.88C221.88 402.88 221.88 402.73 225.89 402.73C229.9 402.73 229.9 402.43 233.91 402.43C237.92 402.43 237.92 402.79 241.93 402.79C245.94 402.79 245.94 402.45 249.95 402.45C253.96 402.45 253.96 402.5 257.97 402.5C261.98 402.5 261.98 403.06 265.99 403.06C270 403.06 270 402.88 274.01 402.88C278.02 402.88 278.02 402.83 282.03 402.83C286.04 402.83 286.04 402.67 290.05 402.67C294.06 402.67 294.06 402.83 298.07 402.83C302.08 402.83 302.08 402.73 306.09 402.73C310.1 402.73 310.1 403.2 314.11 403.2C318.12 403.2 318.12 402.48 322.13 402.48C326.14 402.48 326.14 403.12 330.15 403.12C334.16 403.12 334.16 403 338.17 403C342.18 403 342.18 402.92 346.19 402.92C350.2 402.92 350.2 403.11 354.21 403.11C358.22 403.11 358.22 402.8 362.23 402.8C366.24 402.8 366.24 402.55 370.25 402.55C374.26 402.55 374.26 402.75 378.27 402.75C382.28 402.75 382.28 402.71 386.29 402.71C390.3 402.71 390.3 402.46 394.31 402.46C398.32 402.46 398.32 403.23 402.33 403.23C406.34 403.23 406.34 402.66 410.36 402.66C414.38 402.66 414.37 402.92 418.39 402.92C422.41 402.92 422.4 402.47 426.42 402.47C430.44 402.47 430.43 403 434.45 403C438.47 403 438.46 402.53 442.48 402.53C446.5 402.53 446.49 403.02 450.51 403.02C454.53 403.02 454.52 403.15 458.54 403.15C462.56 403.15 462.55 402.79 466.57 402.79C470.59 402.79 470.58 403.23 474.6 403.23C478.62 403.23 478.61 403.17 482.63 403.17C486.65 403.17 486.64 402.98 490.66 402.98C494.68 402.98 494.68 402.91 498.69 402.91C502.7 402.91 502.7 402.59 506.72 402.59C510.74 402.59 510.74 402.71 514.75 402.71C518.76 402.71 518.77 402.54 522.78 402.54C525.97 402.54 528.82 401.46 530.99 399.12C533.16 396.78 534.49 393.82 534.25 390.63C533.93 386.45 533.88 386.46 533.56 382.28C533.24 378.1 533.2 378.11 532.88 373.93C532.56 369.75 532.75 369.74 532.43 365.56C532.11 361.38 531.64 361.42 531.32 357.24C531 353.06 531.18 353.05 530.86 348.87C530.54 344.69 530.6 344.69 530.28 340.51C529.96 336.33 530.33 336.3 530.01 332.12C529.69 327.94 529.29 327.97 528.97 323.79C528.65 319.61 528.71 319.6 528.39 315.42C528.07 311.24 528.03 311.24 527.71 307.06C527.51 304.46 527.24 301.88 526.68 299.4C526.12 296.92 524.89 294.56 523.97 292.18C523.05 289.8 522.09 287.4 520.81 285.18C519.53 282.96 517.99 280.91 516.39 278.9C514.79 276.89 513.02 275.07 511.14 273.32C509.26 271.57 507.57 269.58 505.43 268.13C503.29 266.68 501.15 265.22 498.81 264.09C496.51 262.98 494.07 262 491.59 261.24C489.11 260.48 486.52 260.45 483.93 260.05C481.48 259.67 478.95 258.94 476.24 258.54C473.76 258.18 471.15 258.01 468.46 257.65C465.96 257.31 463.41 256.69 460.73 256.35C458.22 256.03 455.63 255.7 452.96 255.39C450.44 255.1 447.78 255.38 445.12 255.09C442.46 254.8 440.02 254.29 437.36 254.03C434.7 253.77 432.22 253.51 429.57 253.28C426.92 253.05 424.45 252.48 421.79 252.28C419.13 252.08 416.61 252.15 413.96 251.98C411.31 251.81 408.79 251.78 406.14 251.63C403.57 251.48 400.96 251.54 398.31 251.41C395.66 251.28 393.14 251.03 390.5 250.93C387.86 250.83 385.32 250.89 382.67 250.82C380.02 250.75 377.5 250.21 374.85 250.16C372.2 250.11 369.66 249.91 367.02 249.89C364.38 249.87 361.82 250.24 359.18 250.24L359.26 250.2Z" fill="#2D2218"/>
<path id="Vector_19" d="M316.4 329.72C315.26 331.87 313.97 333.86 312.61 335.69C311.25 337.52 309.35 339.09 307.56 340.61C305.77 342.13 304.1 343.8 301.89 344.84C299.89 345.79 297.6 346.54 295.14 347.08" fill="#2D2218"/>
<path id="Vector_20" d="M295.07 352.41C292.49 352.41 289.97 350.63 289.39 348.01C288.73 344.99 290.85 341.97 293.88 341.31C296.58 340.72 298.96 339.81 301.11 338.53C303.26 337.25 305.4 335.75 307.17 333.64C308.7 331.82 309.95 329.53 311.29 327.01C312.74 324.27 316.08 323.21 318.82 324.66C321.56 326.11 322.7 329.55 321.25 332.28C320.1 334.45 318.57 336.8 316.73 339.2C315.16 341.26 313.39 343.41 311.13 345.27C309.13 346.92 306.72 348.26 304.06 349.52C301.74 350.62 299.27 351.97 296.36 352.61C295.96 352.7 295.47 352.41 295.08 352.41H295.07Z" fill="#2D2218"/>
<path id="Vector_21" d="M402.37 321.84C402.37 323.7 402.95 326.81 404.32 330.22C405.31 332.66 406.95 335.14 408.66 337.65C410.24 339.98 412 342.3 414.2 344.19C416.4 346.08 418.71 347.9 421.46 348.87" fill="#2D2218"/>
<path id="Vector_22" d="M421.58 354.12C420.97 354.12 420.22 354.38 419.61 354.17C416.92 353.23 414.6 351.59 412.42 350C410.24 348.41 408.39 346.21 406.64 344.14C404.89 342.07 403.17 339.76 401.89 337.43C400.46 334.84 399.12 332.35 398.32 329.97C397.21 326.68 396.99 323.75 396.99 321.85C396.99 318.75 399.33 316.47 402.43 316.47C405.53 316.47 407.73 318.75 407.73 321.85C407.73 323.51 409.3 326.74 411.12 330.37C412.41 332.94 413.63 335.96 415.76 338.26C417.89 340.56 420.64 341.98 423.52 342.99C426.44 344.01 427.79 347.42 426.77 350.34C425.96 352.65 423.91 354.13 421.59 354.13L421.58 354.12Z" fill="#2D2218"/>
<path id="Vector_23" d="M358.63 374.88C357.21 374.88 355.76 375.47 354.33 375.38C351.71 375.22 349.17 374.36 346.63 373.93C344.09 373.5 341.44 373.15 338.97 372.45C336.43 371.72 334.13 370.44 331.76 369.46C329.39 368.48 326.87 367.58 324.64 366.33C322.41 365.08 320.09 363.68 318.06 362.14C315.93 360.53 313.9 358.87 312.14 357.05C310.29 355.12 309 352.84 307.63 350.71C306.19 348.46 304.51 346.39 303.69 343.97C302.7 341.04 304.5 337.67 307.44 336.69C310.37 335.7 313.4 337.44 314.38 340.37C315.21 342.84 316.6 345.31 318.41 347.55C320.04 349.57 322.13 351.43 324.41 353.18C326.5 354.78 328.98 355.99 331.5 357.29C333.86 358.51 336.28 359.83 338.93 360.74C341.58 361.65 344.22 361.92 346.94 362.46C349.59 362.99 352.25 363.64 355.01 363.81C357.25 363.95 360.2 364.14 363.58 363.84C366.18 363.61 369.09 363.31 372.08 362.57C374.71 361.91 377.5 361.04 380.24 359.83C382.74 358.72 385.2 357.17 387.65 355.47C389.9 353.92 391.77 351.74 393.87 349.6C395.77 347.66 397.69 345.61 399.39 343.12C400.92 340.89 402.17 338.36 403.47 335.64C404.81 332.85 408.42 331.92 411.21 333.25C414 334.59 415.56 337.99 414.23 340.78C413.09 343.16 411.6 345.32 410.25 347.47C408.86 349.7 407.16 351.66 405.54 353.63C403.92 355.6 402.07 357.45 400.19 359.2C398.31 360.95 396.27 362.51 394.15 364C392.03 365.49 390.15 367.33 387.84 368.53C385.62 369.68 383.08 370.17 380.71 371.04C378.34 371.91 376.14 373.29 373.67 373.86C371.2 374.43 368.68 374.53 366.15 374.81C363.62 375.09 361.15 374.89 358.61 374.89L358.63 374.88Z" fill="#2D2218"/>
<g id="eyes-opened">
<path id="eye-container-left" d="M336.25 341.52C333.43 341.52 330.59 341.45 328.04 340.66C325.38 339.84 323.12 338.09 320.9 336.56C318.68 335.03 316.37 333.36 314.71 331.2C313.05 329.04 312.1 326.42 311.2 323.81C310.3 321.2 309.33 318.64 309.33 315.82C309.33 313 309.93 310.24 310.81 307.7C311.69 305.16 313.46 302.93 315.13 300.77C316.79 298.61 318.36 296.26 320.64 294.7C322.92 293.14 325.59 292.45 328.25 291.63C330.91 290.81 333.44 290.51 336.27 290.51C339.1 290.51 341.7 290.96 344.25 291.74C346.8 292.52 349.57 293.31 351.79 294.85C354.01 296.39 355.82 298.55 357.48 300.71C359.14 302.87 360.58 305.18 361.47 307.79C362.36 310.4 362.88 313.01 362.88 315.83C362.88 318.65 362.39 321.34 361.51 323.88C360.63 326.42 359.02 328.69 357.35 330.85C355.69 333.01 353.82 334.91 351.55 336.47C349.28 338.03 347.02 339.49 344.36 340.31C341.7 341.13 339.08 341.52 336.25 341.52ZM336.25 301.4C333.52 301.4 331.13 302.39 328.9 303.56C326.54 304.8 324.22 306.15 322.83 308.32C321.44 310.49 320.99 313.12 320.99 315.83C320.99 318.54 321.4 321.2 322.78 323.37C324.16 325.54 326.49 326.95 328.85 328.19C331.08 329.36 333.52 330.12 336.25 330.12C338.98 330.12 341.71 329.92 343.94 328.75C346.3 327.51 347.87 325.25 349.26 323.08C350.65 320.91 351.96 318.54 351.96 315.83C351.96 313.12 351.19 310.4 349.8 308.24C348.41 306.08 346.32 304.11 343.96 302.87C341.73 301.7 338.98 301.4 336.25 301.4Z" fill="#2D2218"/>
<path id="eye-container-right" d="M381.74 341.71C378.91 341.71 376.13 341.18 373.57 340.35C371.01 339.52 368.65 337.86 366.44 336.25C364.23 334.64 361.92 333 360.29 330.77C358.66 328.54 357.86 325.88 357 323.23C356.14 320.58 355.54 318.03 355.54 315.19C355.54 312.35 355.59 309.53 356.42 306.97C357.25 304.41 359.14 302.16 360.75 299.95C362.36 297.74 364.08 295.59 366.31 293.96C368.52 292.35 371.07 291.39 373.72 290.52C376.28 289.69 378.9 289.13 381.73 289.13C384.56 289.13 387.39 289.07 389.95 289.9C392.51 290.73 395.06 292.21 397.26 293.81C399.46 295.41 401.07 297.73 402.69 299.96C404.3 302.17 405.59 304.51 406.45 307.15C407.31 309.79 408.21 312.35 408.21 315.18C408.21 318.01 407.32 320.67 406.49 323.23C405.66 325.79 404.78 328.56 403.17 330.77C401.56 332.98 399.63 335.15 397.4 336.77C395.17 338.39 392.57 339.57 389.92 340.43C387.27 341.29 384.55 341.7 381.72 341.7L381.74 341.71ZM381.74 300.34C379 300.34 376.5 300.98 374.28 302.27C372.06 303.56 369.79 305.24 368.46 307.53C367.13 309.82 366.88 312.45 366.88 315.2C366.88 317.95 367.15 320.66 368.43 322.88C369.76 325.17 371.86 327.02 374.15 328.34C376.44 329.66 379 329.96 381.74 329.96C384.48 329.96 387.24 329.84 389.45 328.56C391.66 327.28 393.51 325.04 394.83 322.76C396.15 320.48 397.17 317.94 397.17 315.2C397.17 312.46 396.28 309.76 394.99 307.54C393.7 305.32 391.41 303.72 389.12 302.39C386.83 301.06 384.47 300.33 381.73 300.33L381.74 300.34Z" fill="#2D2218"/>
<path id="eye-left" d="M336.25 325.09C333.85 325.09 331.61 324.48 330.03 322.91C328.45 321.34 327.14 319.09 327.14 316.69C327.14 314.29 328.7 312.3 330.28 310.72C331.86 309.14 333.85 307.75 336.25 307.75C338.65 307.75 340.56 309.22 342.14 310.8C343.72 312.38 345.09 314.29 345.09 316.69C345.09 319.09 343.85 321.13 342.27 322.71C340.69 324.29 338.65 325.09 336.25 325.09Z" fill="#2D2218"/>
<path id="eye-right" d="M381.74 323.61C379.37 323.61 377.14 322.9 375.58 321.35C374.02 319.8 372.75 317.57 372.75 315.19C372.75 312.81 374 310.57 375.56 309.01C377.12 307.45 379.37 306.69 381.74 306.69C384.11 306.69 386.19 307.63 387.75 309.18C389.31 310.73 389.99 312.82 389.99 315.19C389.99 317.56 389.27 319.61 387.71 321.16C386.15 322.71 384.11 323.61 381.74 323.61Z" fill="#2D2218"/>
</g>
<g id="eyes-closed">
<path id="eye-right-closed" d="M355.271 303.443C354.483 305.761 353.945 308.279 353.945 310.853C353.945 310.853 353.578 313.755 359.143 313.755C364.395 313.755 364.395 310.862 364.395 310.862C364.395 308.389 364.799 305.989 366.045 304.008C367.29 302.028 369.37 300.796 371.485 299.664C373.484 298.597 375.626 297.693 378.072 297.693C380.519 297.693 382.984 297.967 384.983 299.035C387.098 300.166 388.971 301.964 390.217 303.935C391.463 305.907 392.153 308.389 392.153 310.862C392.153 310.862 392.153 313.755 397.046 313.755C401.94 313.755 401.94 310.862 401.94 310.862C401.94 310.862 401.474 305.907 400.676 303.525C399.879 301.143 398.588 299.035 397.1 297.064C395.612 295.092 393.99 293.121 392 291.716C390.011 290.31 387.528 289.589 385.243 288.877C382.957 288.166 380.627 287.755 378.09 287.755C375.554 287.755 373.286 288.029 370.902 288.777C368.518 289.525 366.125 290.155 364.082 291.579C362.038 293.002 360.631 295.147 359.143 297.118C357.647 299.089 356.06 301.125 355.271 303.443Z" fill="#2D2218"/>
<path id="eye-left-closed" d="M316.271 304.443C315.483 306.761 314.945 309.279 314.945 311.853C314.945 311.853 314.578 314.755 320.143 314.755C325.395 314.755 325.395 311.862 325.395 311.862C325.395 309.389 325.799 306.989 327.045 305.008C328.29 303.028 330.37 301.796 332.485 300.664C334.484 299.597 336.626 298.693 339.072 298.693C341.519 298.693 343.984 298.967 345.983 300.035C348.098 301.166 349.971 302.964 351.217 304.935C352.463 306.907 353.153 309.389 353.153 311.862C353.153 311.862 353.153 314.755 358.046 314.755C362.94 314.755 362.94 311.862 362.94 311.862C362.94 311.862 362.474 306.907 361.676 304.525C360.879 302.143 359.588 300.035 358.1 298.064C356.612 296.092 354.99 294.121 353 292.716C351.011 291.31 348.528 290.589 346.243 289.877C343.957 289.166 341.627 288.755 339.09 288.755C336.554 288.755 334.286 289.029 331.902 289.777C329.518 290.525 327.125 291.155 325.082 292.579C323.038 294.002 321.631 296.147 320.143 298.118C318.647 300.089 317.06 302.125 316.271 304.443Z" fill="#2D2218"/>
</g>
</g>
</g>
</svg>
