<svg width="23" height="19" viewBox="0 0 23 19" fill="none" xmlns="http://www.w3.org/2000/svg">
<g clip-path="url(#clip0_131_34)">
<path d="M20.3802 1.45026C18.9902 0.900256 17.3003 0.930264 15.7903 0.740264C14.0003 0.510264 12.3403 0.490253 11.2103 0.510253C9.70026 0.530253 8.25025 0.710268 6.89025 0.900268C5.28025 1.12027 3.77026 1.17026 2.59026 1.58026C0.82026 2.20026 -0.229752 4.27025 0.390248 6.04025C0.810248 7.26025 2.12023 8.00026 3.31023 8.20026C3.86023 10.2303 3.06023 10.3403 3.06023 12.4403C3.06023 14.5403 3.19024 14.5403 3.19024 16.6403C3.19024 17.8703 4.16025 18.7703 5.39025 18.7703C7.37025 18.7703 7.37028 18.7503 9.36028 18.7503C11.3503 18.7503 11.3503 18.7303 13.3303 18.7303C15.3103 18.7303 15.3203 18.6203 17.3003 18.6203C18.5303 18.6203 19.3702 17.8703 19.3702 16.6403C19.3702 14.5403 19.3202 14.5403 19.3202 12.4403C19.3202 10.3403 18.7002 10.2003 19.2402 8.17026C20.4102 8.00026 21.8602 7.35027 22.3202 6.18027C23.0102 4.43027 22.1302 2.16028 20.3902 1.47028L20.3802 1.45026Z" fill="#2D2218"/>
</g>
<defs>
<clipPath id="clip0_131_34">
<rect width="23" height="19" fill="white"/>
</clipPath>
</defs>
</svg>
