<svg width="483" height="305" viewBox="0 0 483 305" fill="none" xmlns="http://www.w3.org/2000/svg">
<g clip-path="url(#clip0_1_2)">
<path d="M85.5722 303.889C81.2972 303.889 81.2971 303.748 77.0338 303.748C72.7705 303.748 72.7588 303.28 68.4838 303.28C64.2087 303.28 64.2087 303.83 59.9454 303.83C55.6704 303.83 55.6704 303.713 51.3954 303.713C47.1203 303.713 47.1203 303.983 42.8453 303.983C39.1441 303.983 35.6773 302.261 32.8429 300.13C30.0084 297.998 28.1228 294.942 27.0804 291.394C25.546 286.171 25.5577 286.171 24.0234 280.948C22.4891 275.725 21.9035 275.901 20.3691 270.689C19.7835 268.699 20.1115 266.298 21.353 264.647C22.5945 262.984 24.8081 262.492 26.8812 262.492C31.5076 262.492 31.5076 262.152 36.134 262.152C40.7604 262.152 40.7605 262.469 45.3869 262.469C50.0133 262.469 50.0133 262.41 54.6397 262.41C59.2661 262.41 59.2661 262.281 63.8925 262.281C68.5189 262.281 68.5189 262.012 73.1453 262.012C77.7717 262.012 77.7717 262.352 82.3981 262.352C87.0245 262.352 87.0245 262.082 91.6626 262.082C96.3007 262.082 96.289 262.398 100.927 262.398C102.965 262.398 105.19 262.937 106.432 264.541C107.674 266.157 107.521 268.418 107.006 270.385C105.647 275.526 106.186 275.666 104.827 280.819C103.469 285.972 103.281 285.913 101.923 291.066C100.951 294.755 98.7604 297.905 95.8908 300.118C93.0213 302.331 89.4138 303.912 85.5956 303.912L85.5722 303.889ZM36.5908 275.596C35.853 278.524 37.6801 281.498 39.5072 287.728C39.964 289.286 41.2172 290.691 42.8335 290.691C47.1086 290.691 47.1086 290.141 51.3719 290.141C55.6352 290.141 55.647 290.258 59.922 290.258C64.197 290.258 64.197 289.988 68.4603 289.988C72.7236 289.988 72.7354 290.492 77.0104 290.492C81.2854 290.492 81.2854 290.785 85.5605 290.785C87.2236 290.785 89.0625 289.391 89.4841 287.775C91.1122 281.604 93.115 278.231 92.4825 277.037C91.0536 274.308 87.6336 275.655 82.9134 275.655C78.1933 275.655 78.1817 275.046 73.4616 275.046C68.7414 275.046 68.7297 275.385 64.0096 275.385C59.2895 275.385 59.2778 275.069 54.5577 275.069C49.8376 275.069 49.2285 275.596 44.4616 274.858C39.3901 274.074 37.1413 273.359 36.5791 275.596H36.5908Z" fill="#2D2218"/>
<path d="M479.66 269.846C478.09 267.434 475.373 265.783 472.433 263.991C470.032 262.527 467.409 260.806 464.164 259.693C461.435 258.768 458.32 258.37 455.04 257.667C452.171 257.058 449.208 255.841 445.94 255.384C443 254.962 438.42 255.173 435.164 254.869L425.103 257.89L230.853 260.712L96.0314 256.894C94.9187 261.508 94.825 261.485 93.7123 266.111C92.5996 270.725 92.2366 270.643 91.1356 275.257C90.0229 279.871 90.831 280.07 89.7301 284.684C88.6174 289.297 87.9732 289.145 86.8606 293.759C85.7479 298.373 79.3763 298.162 82.2341 301.945C84.9983 305.61 88.7345 303.175 93.3258 303.175C97.9171 303.175 98.7252 302.905 103.316 302.905C107.908 302.905 107.908 303.186 112.499 303.198C117.09 303.198 117.09 303.526 121.682 303.526C126.273 303.526 126.273 302.975 130.864 302.975C135.455 302.975 135.455 303.526 140.047 303.526C144.638 303.526 144.638 303.315 149.229 303.327C153.82 303.327 153.82 303.538 158.412 303.538C163.003 303.538 163.003 302.975 167.594 302.987C172.186 302.987 172.186 302.776 176.777 302.788C181.368 302.788 181.368 302.847 185.959 302.858C190.551 302.858 190.551 303.034 195.142 303.034C199.733 303.034 199.733 303.233 204.324 303.233C208.916 303.233 208.916 303.596 213.507 303.596C218.098 303.596 218.098 303.104 222.689 303.116C227.281 303.116 227.281 303.432 231.86 303.432C236.452 303.432 236.452 303.093 241.043 303.093C245.634 303.093 245.634 302.987 250.214 302.987C254.805 302.987 254.805 303.022 259.396 303.034C263.987 303.034 263.987 303.397 268.567 303.397C273.158 303.397 273.158 303.584 277.738 303.608C280.842 303.666 283.922 303.022 286.991 303.069C290.094 303.128 293.163 303.666 296.232 303.713C299.336 303.76 302.416 303.69 305.473 303.737C308.577 303.783 311.657 303.725 314.714 303.76C317.818 303.795 320.898 303.502 323.955 303.526C327.059 303.549 330.139 304.111 333.184 304.135C336.288 304.146 339.369 303.865 342.425 303.865C345.541 303.865 348.621 304.521 351.667 304.509C354.782 304.509 357.862 303.737 360.896 303.713C364.012 303.69 367.104 303.982 370.137 303.936C373.264 303.889 376.333 303.444 379.366 303.374C382.494 303.303 385.574 303.104 388.596 302.999C391.735 302.893 394.827 303.186 397.837 303.057C400.976 302.917 404.056 302.8 407.055 302.624C410.205 302.448 413.274 302.167 416.261 301.957C419.423 301.722 422.468 301.301 425.443 301.02C428.617 300.727 431.721 300.797 434.673 300.446C437.858 300.059 440.833 299.076 443.738 298.619C446.947 298.116 449.969 297.612 452.815 297.015C456.048 296.336 459.034 295.691 461.763 294.883C465.019 293.923 468.147 293.478 470.653 292.319C473.886 290.832 476.041 288.571 477.938 286.721C480.386 284.321 482.143 281.908 482.155 278.852C482.155 275.491 481.382 272.387 479.707 269.823L479.66 269.846ZM413.438 278.992C412.079 284.145 412.407 284.227 411.049 289.368C409.866 293.865 405.696 296.64 401.046 296.64C396.771 296.64 396.771 296.734 392.508 296.734C388.244 296.734 388.233 297.108 383.958 297.108C379.683 297.108 379.683 297.073 375.419 297.073C371.156 297.073 371.144 296.98 366.869 296.98C362.594 296.98 362.594 296.675 358.319 296.675C353.775 296.675 349.441 294.087 348.165 289.731C346.63 284.508 346.911 284.426 345.377 279.215C343.843 273.992 339.568 273.441 342.343 268.757C344.698 264.776 346.982 268.863 351.608 268.863C356.234 268.863 356.234 269.085 360.861 269.085C365.487 269.085 365.487 268.699 370.114 268.699C374.74 268.699 374.74 268.5 379.366 268.5C383.993 268.5 383.993 268.359 388.619 268.359C393.246 268.359 393.246 268.617 397.872 268.617C402.499 268.617 402.498 269.237 407.137 269.237C411.775 269.237 414.211 264.682 416.694 268.593C419.552 273.09 414.808 273.875 413.461 279.016L413.438 278.992Z" fill="#2D2218"/>
<path d="M401.046 303.959C396.771 303.959 396.771 303.268 392.508 303.268C388.245 303.268 388.233 303.221 383.958 303.221C379.683 303.221 379.683 303.186 375.419 303.186C372.569 303.186 369.719 303.186 366.869 303.186C362.594 303.186 362.594 303.362 358.319 303.362C354.618 303.362 351.245 302.132 348.399 300.013C345.553 297.893 343.234 295.059 342.18 291.511C340.645 286.288 340.891 286.218 339.357 281.006C337.823 275.784 337.295 275.948 335.761 270.725C335.176 268.734 335.55 266.286 336.792 264.635C338.033 262.972 340.282 262.422 342.344 262.422C346.97 262.422 346.97 261.871 351.596 261.871C356.223 261.871 356.223 262.551 360.849 262.551C365.476 262.551 365.476 262.609 370.102 262.609C374.728 262.609 374.728 262.598 379.355 262.598C383.981 262.598 383.981 262.644 388.608 262.644C393.234 262.644 393.234 262.586 397.86 262.586C402.487 262.586 402.487 262.352 407.125 262.352C411.763 262.352 411.751 262.059 416.389 262.059C418.427 262.059 420.664 262.937 421.906 264.553C423.147 266.169 422.808 268.394 422.281 270.362C420.922 275.503 421.601 275.69 420.243 280.831C418.884 285.972 418.861 285.972 417.502 291.113C416.53 294.801 413.953 297.589 411.084 299.79C408.214 302.003 404.864 303.994 401.046 303.994V303.959ZM351.491 275.503C350.226 278.571 352.686 281.639 354.513 287.857C354.97 289.415 356.691 290.75 358.308 290.75C362.583 290.75 362.583 290.785 366.846 290.785C371.109 290.785 371.121 290.785 375.396 290.785C379.671 290.785 379.671 290.609 383.934 290.609C388.198 290.609 388.209 290.644 392.484 290.644C396.759 290.644 396.759 290.41 401.034 290.41C402.698 290.41 404.396 289.356 404.818 287.752C406.446 281.58 409.011 279.203 407.57 275.479C407.008 274.027 403.108 275.713 398.387 275.713C393.656 275.713 393.656 275.14 388.936 275.14C384.204 275.14 384.204 275.69 379.484 275.69C374.752 275.69 374.752 275.011 370.032 275.011C365.312 275.011 365.382 275.257 360.662 274.964C356.305 274.694 352.159 273.863 351.479 275.514L351.491 275.503Z" fill="#2D2218"/>
<path d="M453.319 102.316C448.411 102.316 448.411 101.999 443.504 101.999C438.596 101.999 438.596 102.55 433.689 102.55C428.781 102.55 428.781 102.398 423.862 102.398C420.59 102.398 417.315 102.398 414.035 102.398C410.404 102.398 407.02 99.2473 407.02 95.6171C407.02 91.9868 410.404 89.2817 414.035 89.2817C418.943 89.2817 418.943 89.2349 423.85 89.2349C428.758 89.2349 428.758 89.4105 433.665 89.4105C438.573 89.4105 438.573 89.1529 443.492 89.1529C448.411 89.1529 448.399 89.4105 453.319 89.4105C455.603 89.4105 457.57 87.9233 458.906 86.073C460.241 84.2228 461.037 81.8924 460.323 79.726C459.152 76.1894 458.835 76.2948 457.664 72.7582C456.715 69.8774 454.021 67.8748 450.988 67.8748C445.987 67.8748 445.987 68.0857 440.997 68.0857C436.008 68.0857 435.996 68.2965 430.995 68.2965C425.994 68.2965 425.994 68.0271 421.004 68.0271C416.015 68.0271 416.003 67.9334 411.002 67.9334C406.001 67.9334 410.557 68.0037 405.555 68.0037C401.925 68.0037 401.374 65.9192 401.374 62.3007C401.374 58.6821 397.38 54.7474 401.011 54.7474C406.012 54.7474 406.012 55.0635 411.002 55.0635C415.991 55.0635 416.003 54.7825 421.004 54.7825C426.005 54.7825 426.005 55.0987 430.995 55.0987C435.984 55.0987 435.996 54.9113 440.997 54.9113C445.998 54.9113 445.998 55.2158 451 55.2158C453.881 55.2158 456.704 55.3212 459.222 56.4337C461.74 57.5462 463.79 59.5955 465.675 61.68C467.526 63.7176 469.142 65.9543 470.044 68.6946C471.215 72.2312 471.403 72.1726 472.574 75.7092C473.593 78.8125 473.991 82.0914 473.511 85.183C473.031 88.2746 471.742 91.3311 469.833 93.9894C467.912 96.6359 465.23 98.4627 462.443 99.8797C459.655 101.297 456.61 102.304 453.33 102.304L453.319 102.316Z" fill="#2D2218"/>
<path d="M414.117 95.5234C418.779 98.5564 420.512 98.7087 424.951 95.3477C428.477 92.6777 425.478 91.2257 425.748 86.8225C426.017 82.4194 426.04 82.4193 426.31 78.0045C426.579 73.5896 426.368 73.5779 426.638 69.163C426.907 64.7481 430.702 63.1555 427.259 60.3801C422.773 56.7733 421.531 60.2864 415.78 60.2864C410.03 60.2864 408.273 56.1994 404.138 60.2044C400.859 63.4014 405.181 64.8301 406.399 69.245C407.617 73.6599 407.629 73.6481 408.847 78.063C410.065 82.4779 410.814 82.2671 411.154 86.8342C411.517 91.6238 410.276 93.0174 414.117 95.5117V95.5234Z" fill="#2D2218"/>
<path d="M13.002 144.321C12.5218 144.321 12.0768 144.052 11.5966 143.946C8.05942 143.15 5.64666 141.195 6.44311 137.658C7.48551 132.997 7.57921 131.475 8.63332 126.814C9.68744 122.153 9.65232 122.259 10.6947 117.598C11.7371 112.937 11.538 112.89 12.5804 108.229C13.6228 103.569 13.6696 103.58 14.7238 98.9195C15.7662 94.2587 16.2581 94.3641 17.3005 89.7033C18.3429 85.0425 18.3429 85.0308 19.3502 80.3583C19.9592 77.1262 20.2169 73.8824 21.025 70.8494C21.8332 67.8164 22.6648 64.5257 23.7189 61.5629C24.8316 58.4597 26.5065 55.6608 27.83 52.8151C29.1535 49.9695 30.4301 46.8194 32.0464 44.126C33.6628 41.4325 35.8998 38.8797 37.8324 36.397C39.7649 33.9144 41.6741 31.1156 43.9463 28.914C46.2185 26.7124 49.2403 25.19 51.8287 23.328C54.4172 21.4661 57.0525 19.6158 59.9103 18.1871C62.7681 16.7584 65.6142 15.2244 68.6946 14.2407C71.775 13.257 74.8671 12.5544 78.0997 12.0508C81.262 11.5473 84.4595 11.4067 87.5867 10.9383C90.714 10.4699 93.9232 10.1654 97.0621 9.73214C100.201 9.29885 103.34 8.51423 106.479 8.10436C109.618 7.69449 112.792 7.12071 115.931 6.74597C119.07 6.37124 122.337 6.64056 125.488 6.28924C128.639 5.93793 131.813 5.52802 134.975 5.22355C138.138 4.91907 141.288 4.36871 144.451 4.08766C147.613 3.80661 150.787 3.40848 153.949 3.16255C157.112 2.91663 160.321 2.95171 163.483 2.74092C166.646 2.53013 169.808 1.86267 172.982 1.68702C176.156 1.51136 179.365 1.97979 182.539 1.83926C185.713 1.69873 188.864 0.867245 192.05 0.773561C195.236 0.679877 198.421 1.40598 201.607 1.33571C204.793 1.26545 207.955 0.562757 211.141 0.539336C214.327 0.515915 217.501 0.890709 220.687 0.890709C223.872 0.890709 226.918 0.422294 229.986 0.457425C233.055 0.492557 236.217 0.773558 239.274 0.843821C242.331 0.914084 245.517 0.867285 248.562 0.960969C251.607 1.05465 254.782 1.67528 257.827 1.80409C260.872 1.93291 264.081 1.78067 267.126 1.94461C270.172 2.10856 273.346 2.65899 276.379 2.85807C279.413 3.05715 282.645 2.82291 285.679 3.04541C288.712 3.26791 291.922 3.43184 294.955 3.68947C297.989 3.9471 301.128 4.88398 304.149 5.18845C307.171 5.49293 310.451 5.18843 313.449 5.52803C316.611 5.87935 319.68 6.28924 322.678 6.65227C325.852 7.03872 328.898 7.57741 331.873 7.97556C335.047 8.39714 338.174 8.42055 341.125 8.84213C344.323 9.29884 347.286 10.3997 350.214 10.8447C353.424 11.3365 356.562 11.3131 359.455 11.7932C362.594 12.3085 365.628 13.2219 368.568 14.1821C371.507 15.1424 374.436 16.4306 377.223 17.8593C380.011 19.2879 382.623 20.9977 385.176 22.8479C387.729 24.6982 389.884 26.8646 392.168 29.0896C394.452 31.3146 396.396 33.5631 398.388 36.0808C400.379 38.5986 402.288 40.8704 403.974 43.6107C405.661 46.351 407.488 48.7516 408.905 51.6324C410.322 54.5132 410.885 57.5228 412.056 60.5207C413.227 63.5186 414.75 66.13 415.698 69.2099C416.647 72.2898 417.303 75.2057 418.041 78.3324C418.041 78.3676 418.217 78.3792 418.228 78.4143C419.271 83.1922 418.65 83.3328 419.692 88.1107C420.735 92.8886 421.133 92.8066 422.175 97.5845C423.218 102.362 422.937 102.433 423.979 107.211C425.022 111.988 425.642 111.86 426.673 116.638C427.704 121.415 427.516 121.345 428.559 126.135C429.601 130.913 429.273 131.592 430.315 136.37C431.089 139.918 428.933 142.822 425.396 143.595C421.847 144.356 418.463 142.167 417.69 138.63C416.647 133.852 416.12 133.969 415.078 129.203C414.035 124.425 414.574 124.308 413.532 119.53C412.489 114.752 412.161 114.822 411.119 110.044C410.076 105.267 410.03 105.278 408.999 100.5C408.304 97.3152 407.609 94.1299 406.914 90.9446C405.872 86.1667 405.954 86.1433 404.9 81.3771C404.22 78.4964 404.021 75.112 402.932 71.7394C401.983 68.7766 400.402 65.8255 399.078 62.6871C397.837 59.7478 396.572 56.7031 394.956 53.7871C393.339 50.8712 391.407 48.33 389.451 45.6718C387.495 43.0135 385.504 40.4722 383.15 38.177C380.795 35.8817 378.324 33.7973 375.548 31.9821C372.772 30.167 369.891 28.8554 366.764 27.6492C363.824 26.5133 360.65 25.881 357.277 25.3306C354.419 24.8622 351.444 24.2181 348.27 23.7262C345.389 23.2812 342.367 22.8479 339.216 22.4029C336.312 21.9814 333.313 21.4193 330.174 21.0094C327.246 20.6229 324.224 20.2364 321.109 19.8617C318.169 19.4987 315.159 18.9015 312.055 18.5619C308.951 18.2222 306.058 17.9412 302.955 17.6367C299.851 17.3323 296.923 17.344 293.819 17.0629C290.715 16.7819 287.799 16.5711 284.707 16.3369C281.615 16.1027 278.698 15.5991 275.606 15.4C272.514 15.2009 269.574 14.8731 266.482 14.7091C263.39 14.5452 260.415 14.8262 257.323 14.6974C254.231 14.5686 251.279 14.3695 248.187 14.2641C245.095 14.1587 242.132 13.8659 239.04 13.7957C235.948 13.7254 232.973 13.7723 229.881 13.7371C226.789 13.702 223.814 13.7371 220.722 13.7371C217.63 13.7371 214.432 13.6552 211.305 13.6786C208.178 13.702 205.039 14.2993 201.9 14.3578C198.761 14.4164 195.622 14.229 192.483 14.3344C189.344 14.4398 186.229 14.8965 183.09 15.0253C179.951 15.1541 176.824 15.2829 173.696 15.4586C170.569 15.6343 167.442 15.7514 164.303 15.9622C161.164 16.1729 158.06 16.4891 154.933 16.7233C151.806 16.9575 148.632 16.5945 145.505 16.8638C142.377 17.1332 139.297 17.789 136.17 18.0935C133.043 18.3979 129.904 18.3042 126.765 18.6438C123.626 18.9834 120.627 20.0257 117.5 20.3887C114.373 20.7517 111.258 20.8923 108.13 21.3021C105.003 21.712 101.888 21.794 98.7604 22.2273C95.6332 22.6605 92.6348 23.5974 89.5076 24.0541C86.3803 24.5108 83.3117 24.9324 80.1962 25.4242C77.2095 25.8926 74.2229 26.2088 71.4353 27.1808C68.6478 28.1528 66.0944 29.7923 63.4943 31.2678C60.8941 32.7433 58.3174 34.1603 55.9866 36.0925C53.7261 37.9662 51.4891 39.9453 49.4745 42.2406C47.46 44.5358 45.8437 46.8896 44.1571 49.4425C42.4705 51.9954 41.1939 54.5132 39.8235 57.2651C38.5351 59.8649 37.6801 62.7223 36.6143 65.5914C35.5953 68.3082 34.2601 70.9899 33.4519 73.9526C32.6906 76.7632 32.3158 79.7259 31.7419 82.7355C31.7302 82.8058 31.8239 82.958 31.8122 83.0283C30.7698 87.7008 30.8049 87.7008 29.7508 92.3733C28.6967 97.0458 28.3922 96.9756 27.3381 101.648C26.2839 106.321 26.3425 106.332 25.2884 111.005C24.2343 115.677 24.41 115.712 23.3558 120.385C22.3017 125.057 22.1026 125.011 21.0602 129.683C20.0178 134.356 20.4746 134.461 19.4205 139.133C18.7294 142.19 15.9653 144.31 12.9669 144.31L13.002 144.321Z" fill="#2D2218"/>
<path d="M358.413 40.0507C356.703 35.9988 352.873 33.5981 348.539 32.8604C345.506 32.3451 342.484 31.8533 339.474 31.3848C336.429 30.9047 333.466 30.1084 330.444 29.6634C327.398 29.2184 324.377 28.7734 321.355 28.3635C318.31 27.9536 315.229 27.9068 312.196 27.5438C309.151 27.169 306.129 26.6772 303.095 26.3376C300.05 25.998 297.028 25.471 293.983 25.1783C290.938 24.8855 287.857 24.9324 284.812 24.6747C281.755 24.4171 278.745 23.7145 275.688 23.492C272.631 23.2695 269.551 23.4919 266.494 23.3163C263.437 23.1406 260.415 22.52 257.346 22.3677C254.29 22.2272 251.233 22.0633 248.164 21.9579C245.107 21.8525 242.05 21.7822 238.981 21.7119C235.936 21.6417 232.868 22.0867 229.787 22.0516C226.742 22.0165 223.685 22.0281 220.605 22.0281C217.524 22.0281 214.303 21.5012 211.164 21.5363C208.014 21.5715 204.863 21.4075 201.712 21.4777C198.562 21.548 195.435 22.2155 192.284 22.3326C189.145 22.4497 185.971 22.0047 182.82 22.1569C179.681 22.3092 176.554 22.883 173.404 23.0704C170.265 23.2578 167.149 23.8316 164.01 24.0658C160.871 24.2883 157.744 24.5225 154.593 24.7801C151.466 25.0377 148.292 24.8972 145.153 25.2017C142.026 25.5061 138.946 26.2908 135.807 26.6304C132.68 26.97 129.529 27.0051 126.39 27.3799C123.274 27.7546 120.171 28.2816 117.032 28.6797C113.916 29.0896 110.812 29.6048 107.685 30.0498C104.581 30.4831 101.478 31.0335 98.3504 31.5136C95.2467 31.9821 92.0609 31.9469 88.9337 32.4622C84.5649 33.1765 80.9341 36.1628 79.0952 40.2029L79.0366 40.2146C78.8375 40.683 78.0997 42.7792 79.1655 44.1259C80.2313 45.4726 82.7846 46.9599 91.6509 45.6717C93.361 45.3204 98.5495 44.4889 100.271 44.2196C103.352 43.7512 106.385 43.0837 109.442 42.6621C112.522 42.2288 115.556 41.5262 118.613 41.128C121.693 40.7299 124.797 40.519 127.866 40.156C130.946 39.793 134.062 39.7461 137.13 39.4182C140.222 39.0904 143.303 38.7976 146.371 38.4931C149.463 38.2004 152.567 38.1535 155.648 37.8959C158.74 37.6383 161.808 37.2401 164.9 37.0176C167.992 36.7951 171.049 36.0574 174.141 35.87C177.234 35.6826 180.337 35.5655 183.429 35.4133C186.522 35.261 189.625 35.2962 192.729 35.1908C195.821 35.0737 198.925 34.898 202.017 34.816C205.109 34.7458 208.213 34.7224 211.317 34.6872C214.409 34.6521 217.513 34.4179 220.616 34.4179C223.872 34.4179 227.117 34.6286 230.349 34.6638C233.605 34.6989 236.838 35.2376 240.059 35.3196C243.303 35.4015 246.536 35.6007 249.769 35.7295C253.013 35.8466 256.257 35.7997 259.49 35.9636C262.734 36.1276 265.99 35.9637 269.211 36.1745C272.444 36.3853 275.7 36.4087 278.932 36.6546C282.165 36.9005 285.386 37.3572 288.607 37.6499C291.828 37.9427 295.037 38.458 298.27 38.7976C301.491 39.1372 304.711 39.4885 307.932 39.875C311.142 40.2497 314.409 40.2965 317.63 40.7181C320.828 41.1397 324.049 41.5847 327.27 42.0531C330.467 42.5098 333.618 43.3413 336.839 43.8449C340.024 44.3484 343.222 44.8871 346.431 45.4375C346.455 45.4375 346.958 45.5078 346.97 45.5312C347.005 45.6014 349.195 45.7069 349.23 45.7654C354.161 46.105 356.516 46.3626 358.202 44.9339C359.889 43.5052 359.256 42.0765 358.413 40.074V40.0507Z" fill="#2D2218"/>
<path d="M364 57.1363C363.918 56.9489 363.848 56.7615 363.766 56.621C362.922 55.2626 360.896 53.8691 358.472 53.5646C354.876 53.1196 350.929 52.7917 347.52 51.9368L347.485 51.9251C344.616 51.4918 341.477 50.8595 338.361 50.4145C335.468 50.0046 332.423 49.9226 329.319 49.5244C326.403 49.1497 323.463 48.3066 320.371 47.9436C317.443 47.5922 314.386 47.6742 311.306 47.3463C308.366 47.0301 305.403 46.2689 302.322 45.9645C299.371 45.6834 296.361 45.3672 293.28 45.1096C290.329 44.8519 287.307 44.6294 284.226 44.4069C281.263 44.1844 278.206 44.4772 275.138 44.2782C272.163 44.0908 269.153 43.9503 266.072 43.7863C263.097 43.6341 260.099 42.9432 257.03 42.8143C254.044 42.6855 251.022 42.3576 247.953 42.2639C244.966 42.1702 241.921 42.6621 238.853 42.6036C235.866 42.545 232.844 41.9243 229.787 41.8892C226.801 41.854 223.767 42.2523 220.698 42.2523C217.63 42.2523 214.456 42.6387 211.34 42.6738C208.213 42.7089 205.097 42.7323 201.982 42.8026C198.855 42.8612 195.727 42.5215 192.624 42.6269C189.508 42.7206 186.404 43.3179 183.289 43.4467C180.173 43.5755 177.046 43.4115 173.931 43.5755C170.815 43.7394 167.711 44.0556 164.596 44.2547C161.48 44.4538 158.388 44.77 155.273 44.9925C152.169 45.2267 149.065 45.5663 145.95 45.8357C142.846 46.105 139.695 45.8473 136.58 46.1518C133.488 46.4446 130.396 46.9599 127.28 47.2878C124.188 47.6157 121.108 48.1543 117.992 48.5174C114.9 48.8804 111.738 48.6579 108.622 49.0443C105.542 49.4308 102.438 49.7938 99.3225 50.2271C96.2422 50.6487 93.3961 51.2108 90.2923 51.6675C90.0346 51.4918 85.7127 52.6278 85.7244 52.499C79.8565 53.4358 77.8771 53.8105 74.8319 55.7427C74.0354 56.2463 73.4967 56.9021 73.1219 57.757C72.1263 59.9586 72.1497 62.4997 73.6138 64.4203C74.867 66.0715 77.0689 66.7389 79.1069 66.7389C79.4466 66.7389 79.7628 66.6218 80.1025 66.5632C83.218 66.0714 86.4155 66.1886 89.4958 65.7318C92.6231 65.2634 95.598 63.9752 98.6901 63.5536C101.817 63.1203 104.956 62.9681 108.048 62.57C111.176 62.1601 114.338 62.1718 117.43 61.7971C120.557 61.4223 123.673 61.0593 126.776 60.7197C129.904 60.3801 132.996 59.818 136.111 59.5136C139.238 59.2091 142.401 59.373 145.516 59.1036C148.644 58.8343 151.701 57.7219 154.828 57.4759C157.955 57.2417 161.094 57.1363 164.221 56.9255C167.348 56.7264 170.499 56.6679 173.626 56.5039C176.753 56.34 179.916 56.7265 183.055 56.5859C186.182 56.4571 189.309 56.0589 192.448 55.9535C195.575 55.8481 198.714 55.5554 201.853 55.4851C204.98 55.4149 208.119 55.087 211.258 55.0518C214.385 55.0167 217.524 55.1806 220.675 55.1806C223.826 55.1806 226.812 55.5085 229.834 55.5319C232.926 55.5671 235.971 55.6374 238.981 55.6959C242.073 55.7662 245.119 56.0706 248.117 56.1643C251.209 56.258 254.266 56.2229 257.264 56.3517C260.357 56.4805 263.437 56.094 266.424 56.258C269.516 56.4219 272.561 56.6562 275.559 56.8552C278.651 57.0543 281.685 57.4408 284.672 57.6633C287.775 57.8975 290.821 58.0614 293.796 58.3191C296.899 58.5884 299.933 58.9046 302.908 59.1973C306.012 59.5018 309.069 59.6072 312.032 59.9351C315.147 60.2747 318.157 60.8134 321.097 61.1764C324.213 61.5512 327.176 62.4178 330.104 62.8042C333.231 63.2258 336.23 63.741 339.146 64.1626C342.285 64.6193 345.33 64.8769 348.223 65.3219C351.386 65.8138 354.454 65.9426 357.312 66.411C359.736 66.8092 361.856 65.7436 363.332 63.7528C364.808 61.762 364.96 59.291 363.976 57.1363H364Z" fill="#2D2218"/>
<path d="M412.36 268.828C407.664 268.828 407.664 268.839 402.967 268.839C398.27 268.839 398.27 268.535 393.574 268.535C388.877 268.535 388.877 268.781 384.18 268.781C379.484 268.781 379.484 268.839 374.787 268.839C370.09 268.839 370.09 268.968 365.394 268.968C360.697 268.968 360.697 268.804 356 268.804C351.304 268.804 351.304 268.968 346.607 268.968C341.91 268.968 341.91 268.722 337.213 268.722C332.517 268.722 332.517 269.273 327.82 269.273C323.123 269.273 323.123 269.097 318.427 269.097C313.73 269.097 313.73 269.038 309.033 269.038C304.337 269.038 304.337 268.64 299.64 268.64C294.943 268.64 294.943 269.226 290.247 269.226C285.55 269.226 285.55 269.202 280.853 269.202C276.157 269.202 276.157 269.015 271.46 269.015C266.763 269.015 266.763 268.418 262.067 268.418C257.37 268.418 257.37 269.191 252.673 269.191C247.977 269.191 247.977 268.992 243.28 268.992C238.583 268.992 238.583 268.839 233.887 268.839C229.19 268.839 229.19 269.144 224.493 269.144C219.796 269.144 219.796 269.226 215.1 269.226C210.403 269.226 210.403 269.167 205.706 269.167C201.01 269.167 201.01 269.273 196.313 269.273C191.616 269.273 191.616 268.828 186.92 268.828C182.223 268.828 182.223 268.394 177.526 268.394C172.83 268.394 172.83 269.038 168.133 269.038C163.436 269.038 163.436 269.296 158.728 269.296C154.031 269.296 154.031 268.781 149.323 268.781C144.614 268.781 144.626 269.261 139.918 269.261C135.209 269.261 135.221 268.746 130.513 268.746C125.804 268.746 125.816 268.383 121.108 268.383C116.399 268.383 116.411 268.605 111.703 268.605C106.994 268.605 107.006 268.628 102.298 268.628C97.5891 268.628 97.6008 269.003 92.8924 269.003C88.184 269.003 88.1958 269.073 83.4874 269.073C78.7907 269.073 78.7907 268.956 74.0823 268.956C69.3856 268.956 69.3856 269.202 64.6772 269.202C59.9688 269.202 59.9688 269.202 55.2722 269.202C50.5755 269.202 50.5755 268.886 45.8671 268.886C41.1587 268.886 41.1587 268.757 36.462 268.757C31.7653 268.757 31.7536 268.933 27.0569 268.933C23.4026 268.933 19.6781 268.523 16.4338 267.129C13.1894 265.736 10.3785 263.277 7.86028 260.63C5.34211 257.972 3.0582 255.033 1.82839 251.718C0.610301 248.404 0.0832223 244.669 0.270621 241.015C0.528294 236.19 1.18421 236.225 1.43017 231.389C1.67614 226.553 1.47702 226.553 1.72299 221.716C1.98066 216.891 1.91035 216.88 2.16803 212.055C2.4257 207.23 2.22661 207.218 2.48429 202.394C2.74196 197.569 2.91764 197.581 3.17531 192.744C3.43299 187.908 3.31585 187.908 3.56181 183.083C3.80777 178.258 4.36999 178.282 4.61595 173.445C4.86191 168.609 4.77991 168.96 5.03758 164.135C5.29526 159.311 5.28354 158.959 5.54121 154.123C5.79888 149.286 5.65833 149.286 5.90429 144.45C6.06826 141.358 6.32594 138.314 6.85299 135.328C7.38005 132.341 8.34048 129.39 9.24234 126.486C10.1442 123.582 10.9172 120.572 12.1822 117.797C13.4471 115.021 14.6535 112.129 16.2581 109.529C17.8627 106.929 19.8421 104.517 21.7629 102.128C23.6837 99.7392 25.7217 97.4206 27.9237 95.2892C30.1256 93.1579 32.2924 90.9095 34.7403 89.0592C37.1882 87.209 40.2334 86.2721 42.8921 84.738C45.5508 83.204 47.9753 81.26 50.8097 80.0656C53.6441 78.8711 56.6191 78.1567 59.594 77.3253C62.569 76.4938 65.4268 75.3579 68.4955 74.9012C71.6578 74.4328 74.9022 74.5968 78.0411 74.1635C81.18 73.7302 84.2955 72.7465 87.4344 72.3249C90.5734 71.9033 93.8411 72.079 96.9801 71.6925C100.119 71.3061 103.328 71.0719 106.479 70.7206C109.629 70.3693 112.768 69.5963 115.931 69.2684C119.093 68.9405 122.326 69.1279 125.488 68.8234C128.65 68.5189 131.825 68.1559 134.987 67.8866C138.149 67.6172 141.323 67.1254 144.486 66.8912C147.648 66.657 150.834 66.3408 154.008 66.13C157.182 65.9192 160.344 65.3454 163.518 65.1581C166.692 64.9707 169.89 64.9473 173.064 64.7951C176.238 64.6428 179.412 64.3149 182.598 64.1978C185.784 64.0807 188.969 64.1743 192.155 64.0807C195.341 63.987 198.527 64.2797 201.712 64.2212C204.898 64.1626 208.072 64.0573 211.258 64.0221C214.444 63.987 217.618 63.9284 220.804 63.9284C223.99 63.9284 227.035 64.1627 230.092 64.1978C233.231 64.2212 236.334 63.7176 239.391 63.7762C242.53 63.8347 245.622 64.1158 248.679 64.1978C251.736 64.2798 254.91 64.4554 257.967 64.5726C261.024 64.6897 264.187 65.2517 267.232 65.3922C270.277 65.5328 273.498 65.2283 276.543 65.3922C279.694 65.5679 282.774 65.8256 285.819 66.0246C288.865 66.2237 292.062 66.4111 295.096 66.6453C298.129 66.8795 301.327 67.2776 304.348 67.5353C307.37 67.7929 310.638 67.5353 313.66 67.8163C316.682 68.0974 319.879 68.6361 322.889 68.9523C326.052 69.2919 329.155 69.491 332.142 69.8423C335.316 70.217 338.396 70.5097 341.383 70.8845C344.557 71.2826 347.556 72.2664 350.519 72.6762C353.705 73.1095 356.738 73.7653 359.69 74.1869C362.899 74.6553 365.956 75.1354 368.86 75.5804C372.128 76.084 375.49 76.1659 378.652 77.1028C381.814 78.0396 384.789 79.5737 387.799 80.9321C390.809 82.2905 393.831 83.6256 396.642 85.3587C399.453 87.0919 401.925 89.2817 404.478 91.3779C407.031 93.4741 409.385 95.7225 411.634 98.1466C413.883 100.571 416.483 102.737 418.38 105.431C420.278 108.124 421.742 111.157 423.253 114.085C424.764 117.012 426.064 120.069 427.177 123.172C428.289 126.275 428.781 129.554 429.472 132.775C430.163 135.995 430.925 139.192 431.182 142.494C431.557 147.389 431.709 147.378 432.084 152.273C432.459 157.168 432.681 157.144 433.044 162.039C433.419 166.934 433.244 166.946 433.618 171.841C433.993 176.736 434.157 176.724 434.532 181.608C434.907 186.491 434.356 186.538 434.719 191.433C435.094 196.328 434.907 196.339 435.282 201.234C435.656 206.129 435.75 206.118 436.125 211.013C436.5 215.908 436.628 215.896 437.003 220.791C437.378 225.686 437.964 225.639 438.338 230.546C438.713 235.453 438.573 235.453 438.948 240.348C439.229 244.001 438.21 247.561 437.015 250.957C435.82 254.353 433.946 257.34 431.452 260.033C428.957 262.726 426.322 265.268 423.019 266.708C419.716 268.148 416.05 268.757 412.384 268.757L412.36 268.828ZM220.78 76.9974C217.63 76.9974 214.479 77.0325 211.352 77.0559C208.201 77.0794 205.051 76.8217 201.912 76.8803C198.773 76.9388 195.622 77.255 192.483 77.337C189.344 77.419 186.194 77.5829 183.055 77.7C179.916 77.8171 176.777 78.0865 173.638 78.227C170.499 78.3792 167.348 78.3793 164.209 78.5549C161.07 78.7306 157.943 79.0936 154.804 79.3043C151.665 79.5151 148.515 79.4917 145.376 79.7376C142.237 79.9836 139.156 80.7799 136.018 81.0492C132.879 81.3185 129.751 81.424 126.612 81.7284C123.474 82.0329 120.358 82.2788 117.231 82.6067C114.104 82.9346 110.953 82.8761 107.814 83.2274C104.675 83.5787 101.653 84.5389 98.5144 84.9254C95.3755 85.3118 92.2951 85.6749 89.1679 86.0848C86.0407 86.4947 82.9252 86.7289 79.798 87.1739C76.6707 87.6189 73.4967 87.4666 70.3694 87.9233C67.2891 88.3801 64.443 89.8204 61.5383 90.7104C58.6336 91.6004 55.6704 92.5607 52.918 93.9074C50.1655 95.2541 47.4131 96.6828 44.8949 98.4277C42.3768 100.173 40.1748 102.351 37.9378 104.459C35.7007 106.566 33.7213 108.873 31.8239 111.298C29.9382 113.722 28.2047 116.216 26.6938 118.898C25.1829 121.579 24.0117 124.355 22.9224 127.259C21.8332 130.163 20.58 132.927 19.9475 135.972C19.3267 138.946 18.4952 141.991 18.3312 145.106C18.0735 149.931 18.7177 149.966 18.4717 154.802C18.2141 159.627 18.4717 159.639 18.2258 164.475C17.9681 169.3 17.4528 169.276 17.2068 174.101C16.9491 178.926 17.4293 178.949 17.1834 183.786C16.9257 188.61 16.4221 188.587 16.1644 193.412C15.9067 198.236 15.5553 198.225 15.2977 203.05C15.04 207.886 15.2625 207.886 15.0166 212.722C14.7589 217.547 14.794 217.547 14.5364 222.384C14.2787 227.22 14.6652 227.232 14.4075 232.068C14.1498 236.905 14.2201 236.905 13.9742 241.741C13.7868 245.418 14.9229 248.814 17.4528 251.484C19.9826 254.154 23.3207 255.349 26.9984 255.349C30.1295 255.349 33.2606 255.349 36.3917 255.349C41.0884 255.349 41.0884 255.665 45.7851 255.665C50.4818 255.665 50.4818 255.794 55.1784 255.794C59.8751 255.794 59.8751 255.618 64.5718 255.618C69.2685 255.618 69.2685 255.267 73.9652 255.267C78.6618 255.267 78.6618 255.688 83.3585 255.688C88.0552 255.688 88.0552 255.29 92.7519 255.29C97.4486 255.29 97.4486 255.349 102.145 255.349C106.842 255.349 106.842 256.004 111.539 256.004C116.235 256.004 116.235 255.794 120.932 255.794C125.629 255.794 125.629 255.735 130.325 255.735C135.022 255.735 135.022 255.548 139.719 255.548C144.415 255.548 144.415 255.735 149.112 255.735C153.809 255.735 153.809 255.618 158.505 255.618C163.202 255.618 163.202 256.168 167.899 256.168C172.595 256.168 172.595 255.325 177.292 255.325C181.989 255.325 181.989 256.075 186.686 256.075C191.382 256.075 191.382 255.934 196.079 255.934C200.775 255.934 200.776 255.841 205.472 255.841C210.169 255.841 210.169 256.063 214.866 256.063C219.562 256.063 219.562 255.7 224.259 255.7C228.956 255.7 228.956 255.407 233.652 255.407C238.349 255.407 238.349 255.641 243.046 255.641C247.742 255.641 247.742 255.595 252.439 255.595C257.136 255.595 257.136 255.302 261.832 255.302C266.529 255.302 266.529 256.204 271.226 256.204C275.922 256.204 275.922 255.536 280.631 255.536C285.339 255.536 285.327 255.841 290.036 255.841C294.744 255.841 294.733 255.314 299.441 255.314C304.149 255.314 304.138 255.934 308.846 255.934C313.554 255.934 313.543 255.384 318.251 255.384C322.959 255.384 322.948 255.958 327.656 255.958C332.365 255.958 332.353 256.11 337.061 256.11C341.77 256.11 341.758 255.688 346.466 255.688C351.175 255.688 351.163 256.204 355.871 256.204C360.58 256.204 360.568 256.133 365.276 256.133C369.985 256.133 369.973 255.911 374.681 255.911C379.39 255.911 379.39 255.829 384.087 255.829C388.783 255.829 388.783 255.454 393.492 255.454C398.2 255.454 398.2 255.595 402.897 255.595C407.593 255.595 407.605 255.396 412.302 255.396C416.038 255.396 419.376 254.131 421.918 251.391C424.459 248.65 426.017 245.184 425.736 241.448C425.361 236.553 425.303 236.565 424.928 231.67C424.553 226.775 424.506 226.787 424.131 221.892C423.757 216.997 423.979 216.985 423.604 212.09C423.229 207.195 422.679 207.242 422.304 202.347C421.929 197.452 422.14 197.44 421.765 192.545C421.391 187.65 421.461 187.65 421.086 182.755C420.711 177.86 421.145 177.825 420.77 172.93C420.395 168.035 419.927 168.07 419.552 163.175C419.177 158.28 419.247 158.268 418.872 153.373C418.498 148.478 418.451 148.478 418.076 143.583C417.842 140.539 417.526 137.517 416.87 134.613C416.214 131.709 414.773 128.945 413.696 126.158C412.618 123.371 411.494 120.561 409.994 117.961C408.495 115.361 406.692 112.96 404.818 110.607C402.944 108.253 400.87 106.121 398.669 104.072C396.467 102.023 394.487 99.6924 391.981 97.9944C389.474 96.2963 386.968 94.5866 384.227 93.2633C381.533 91.9635 378.675 90.8158 375.771 89.9258C372.866 89.0358 369.833 89.0007 366.799 88.5322C363.929 88.0872 360.966 87.2324 357.792 86.7639C354.887 86.3424 351.831 86.1433 348.68 85.7218C345.752 85.3236 342.765 84.5975 339.626 84.1993C336.686 83.8246 333.653 83.4382 330.526 83.0752C327.574 82.7356 324.459 83.0635 321.343 82.7239C318.228 82.3843 315.37 81.787 312.254 81.4826C309.139 81.1781 306.234 80.8736 303.13 80.6043C300.027 80.3349 297.134 79.6674 294.018 79.4332C290.903 79.199 287.951 79.2809 284.847 79.0818C281.743 78.8828 278.792 78.8477 275.688 78.672C272.678 78.4963 269.621 78.5666 266.517 78.4143C263.414 78.2621 260.462 77.9694 257.37 77.8523C254.278 77.7351 251.303 77.8054 248.199 77.7235C245.095 77.6415 242.144 77.0091 239.04 76.9505C235.936 76.892 232.961 76.6578 229.869 76.6344C226.777 76.611 223.779 77.0442 220.687 77.0442L220.78 76.9974Z" fill="#2D2218"/>
<path d="M170.581 170.119C169.246 172.637 167.735 174.968 166.142 177.111C164.549 179.254 162.324 181.092 160.227 182.872C158.131 184.652 156.175 186.608 153.586 187.826C151.244 188.938 148.562 189.817 145.68 190.449" fill="#2D2218"/>
<path d="M145.598 196.691C142.577 196.691 139.625 194.606 138.946 191.538C138.173 188.001 140.656 184.465 144.205 183.692C147.367 183.001 150.154 181.935 152.673 180.436C155.191 178.938 157.697 177.181 159.77 174.71C161.562 172.579 163.026 169.897 164.596 166.946C166.294 163.737 170.206 162.496 173.415 164.194C176.625 165.892 177.96 169.92 176.261 173.117C174.915 175.659 173.123 178.411 170.967 181.221C169.129 183.633 167.055 186.151 164.408 188.329C162.066 190.262 159.243 191.831 156.128 193.306C153.411 194.594 150.518 196.175 147.109 196.925C146.641 197.03 146.067 196.691 145.61 196.691H145.598Z" fill="#2D2218"/>
<path d="M271.273 160.892C271.273 163.07 271.952 166.712 273.557 170.705C274.716 173.562 276.637 176.467 278.64 179.406C280.49 182.135 282.552 184.851 285.128 187.065C287.705 189.278 290.411 191.409 293.632 192.545" fill="#2D2218"/>
<path d="M293.772 198.693C293.058 198.693 292.179 198.998 291.465 198.752C288.314 197.651 285.597 195.73 283.044 193.868C280.49 192.006 278.323 189.43 276.274 187.006C274.224 184.582 272.21 181.877 270.71 179.148C269.036 176.115 267.466 173.199 266.529 170.412C265.229 166.559 264.971 163.128 264.971 160.903C264.971 157.273 267.712 154.603 271.343 154.603C274.974 154.603 277.55 157.273 277.55 160.903C277.55 162.847 279.389 166.63 281.521 170.881C283.032 173.89 284.461 177.427 286.956 180.12C289.45 182.814 292.671 184.477 296.044 185.659C299.464 186.854 301.046 190.847 299.851 194.267C298.902 196.972 296.501 198.705 293.784 198.705L293.772 198.693Z" fill="#2D2218"/>
<path d="M220.042 223.004C218.379 223.004 216.681 223.695 215.006 223.59C211.937 223.402 208.963 222.395 205.988 221.892C203.013 221.388 199.909 220.978 197.016 220.159C194.041 219.304 191.347 217.805 188.571 216.657C185.795 215.509 182.844 214.456 180.232 212.992C177.62 211.528 174.903 209.888 172.525 208.085C170.03 206.2 167.653 204.256 165.591 202.124C163.425 199.864 161.914 197.194 160.309 194.7C158.623 192.065 156.655 189.641 155.694 186.807C154.535 183.376 156.643 179.429 160.087 178.282C163.518 177.122 167.067 179.16 168.215 182.591C169.187 185.484 170.815 188.376 172.935 190.999C174.844 193.365 177.292 195.543 179.963 197.592C182.41 199.466 185.315 200.883 188.267 202.405C191.031 203.834 193.865 205.38 196.969 206.445C200.073 207.511 203.165 207.827 206.351 208.46C209.454 209.08 212.57 209.842 215.803 210.041C218.426 210.205 221.881 210.427 225.84 210.076C228.885 209.806 232.294 209.455 235.796 208.589C238.876 207.816 242.144 206.797 245.353 205.38C248.281 204.08 251.162 202.265 254.032 200.274C256.667 198.459 258.857 195.906 261.317 193.4C263.542 191.128 265.791 188.727 267.782 185.812C269.574 183.2 271.038 180.237 272.561 177.052C274.13 173.785 278.359 172.696 281.626 174.253C284.894 175.822 286.721 179.804 285.163 183.071C283.828 185.858 282.083 188.388 280.502 190.906C278.874 193.517 276.883 195.812 274.985 198.119C273.088 200.426 270.921 202.593 268.719 204.642C266.517 206.691 264.128 208.518 261.645 210.263C259.162 212.008 256.96 214.163 254.254 215.568C251.654 216.915 248.679 217.489 245.903 218.507C243.128 219.526 240.551 221.142 237.658 221.81C234.765 222.477 231.813 222.594 228.85 222.922C225.887 223.25 222.994 223.016 220.019 223.016L220.042 223.004Z" fill="#2D2218"/>
<path d="M193.83 183.938C190.527 183.938 187.201 183.856 184.214 182.931C181.099 181.97 178.452 179.921 175.851 178.129C173.251 176.338 170.546 174.382 168.602 171.853C166.657 169.323 165.545 166.255 164.49 163.199C163.436 160.142 162.3 157.144 162.3 153.842C162.3 150.539 163.003 147.307 164.034 144.333C165.064 141.358 167.137 138.747 169.093 136.218C171.038 133.688 172.877 130.936 175.547 129.109C178.217 127.282 181.345 126.474 184.46 125.514C187.576 124.554 190.539 124.203 193.854 124.203C197.168 124.203 200.213 124.729 203.2 125.643C206.187 126.556 209.431 127.481 212.031 129.285C214.631 131.088 216.751 133.618 218.696 136.147C220.64 138.677 222.326 141.382 223.369 144.438C224.411 147.495 225.02 150.551 225.02 153.854C225.02 157.156 224.446 160.306 223.416 163.281C222.385 166.255 220.499 168.913 218.543 171.443C216.599 173.972 214.409 176.197 211.75 178.024C209.091 179.851 206.444 181.561 203.329 182.521C200.213 183.481 197.145 183.938 193.83 183.938ZM193.83 136.955C190.633 136.955 187.833 138.115 185.221 139.485C182.457 140.937 179.74 142.518 178.112 145.059C176.484 147.6 175.957 150.68 175.957 153.854C175.957 157.027 176.437 160.142 178.053 162.683C179.67 165.224 182.399 166.876 185.163 168.328C187.775 169.698 190.633 170.588 193.83 170.588C197.028 170.588 200.225 170.354 202.837 168.984C205.601 167.531 207.44 164.885 209.068 162.344C210.696 159.803 212.23 157.027 212.23 153.854C212.23 150.68 211.328 147.495 209.7 144.965C208.072 142.436 205.624 140.129 202.86 138.677C200.248 137.307 197.028 136.955 193.83 136.955Z" fill="#2D2218"/>
<path d="M247.11 184.16C243.795 184.16 240.539 183.54 237.541 182.568C234.542 181.596 231.778 179.652 229.19 177.766C226.601 175.881 223.896 173.961 221.987 171.349C220.078 168.738 219.141 165.623 218.133 162.519C217.126 159.416 216.423 156.43 216.423 153.104C216.423 149.778 216.482 146.476 217.454 143.478C218.426 140.48 220.64 137.845 222.525 135.257C224.411 132.669 226.426 130.151 229.038 128.243C231.626 126.357 234.613 125.233 237.716 124.214C240.715 123.242 243.784 122.586 247.098 122.586C250.413 122.586 253.727 122.516 256.726 123.488C259.724 124.46 262.711 126.193 265.288 128.067C267.864 129.941 269.75 132.658 271.647 135.269C273.533 137.857 275.044 140.597 276.051 143.689C277.059 146.78 278.113 149.778 278.113 153.092C278.113 156.406 277.07 159.521 276.098 162.519C275.126 165.517 274.095 168.761 272.21 171.349C270.324 173.937 268.063 176.478 265.452 178.375C262.84 180.272 259.794 181.654 256.691 182.661C253.587 183.669 250.401 184.149 247.086 184.149L247.11 184.16ZM247.11 135.714C243.901 135.714 240.973 136.463 238.372 137.974C235.772 139.485 233.114 141.452 231.556 144.134C229.998 146.816 229.705 149.895 229.705 153.116C229.705 156.336 230.021 159.51 231.521 162.109C233.078 164.791 235.538 166.958 238.22 168.503C240.902 170.049 243.901 170.401 247.11 170.401C250.319 170.401 253.552 170.26 256.14 168.761C258.729 167.262 260.895 164.639 262.441 161.969C263.987 159.299 265.182 156.324 265.182 153.116C265.182 149.907 264.14 146.745 262.629 144.145C261.118 141.546 258.436 139.672 255.754 138.115C253.071 136.557 250.307 135.702 247.098 135.702L247.11 135.714Z" fill="#2D2218"/>
<path d="M193.83 164.698C191.019 164.698 188.396 163.983 186.545 162.145C184.694 160.306 183.16 157.671 183.16 154.861C183.16 152.05 184.987 149.72 186.838 147.869C188.688 146.019 191.019 144.391 193.83 144.391C196.641 144.391 198.878 146.113 200.729 147.963C202.579 149.813 204.184 152.05 204.184 154.861C204.184 157.671 202.732 160.06 200.881 161.91C199.03 163.761 196.641 164.698 193.83 164.698Z" fill="#2D2218"/>
<path d="M247.11 162.964C244.334 162.964 241.722 162.133 239.895 160.318C238.068 158.503 236.58 155.891 236.58 153.104C236.58 150.317 238.044 147.694 239.872 145.867C241.699 144.04 244.334 143.15 247.11 143.15C249.886 143.15 252.322 144.251 254.149 146.066C255.976 147.881 256.773 150.329 256.773 153.104C256.773 155.879 255.929 158.28 254.102 160.095C252.275 161.91 249.886 162.964 247.11 162.964Z" fill="#2D2218"/>
</g>
<defs>
<clipPath id="clip0_1_2">
<rect width="483" height="305" fill="white"/>
</clipPath>
</defs>
</svg>
