<svg width="47" height="48" viewBox="0 0 47 48" fill="none" xmlns="http://www.w3.org/2000/svg">
<g clip-path="url(#clip0_131_33)">
<path d="M23.3803 47.2103C21.8003 47.2103 20.3203 46.8203 18.8203 46.5203C17.3203 46.2203 15.7903 45.9403 14.3703 45.3503C12.9503 44.7603 11.6503 43.9403 10.3703 43.0803C9.09025 42.2203 7.90031 41.2803 6.80031 40.1803C5.70031 39.0803 4.64029 37.9903 3.78029 36.7003C2.92029 35.4103 2.35026 34.0003 1.75026 32.5603C1.15026 31.1203 0.600299 29.7303 0.290299 28.1903C-0.0197011 26.6503 0.000259813 25.1803 0.000259813 23.6003C0.000259813 22.0203 0.0902647 20.5203 0.380265 19.0303C0.690265 17.4903 1.13029 16.0503 1.72029 14.6303C2.31029 13.2103 3.06029 11.8703 3.91029 10.5903C4.76029 9.31027 5.34026 7.75028 6.44026 6.66028C7.54026 5.57028 8.87028 4.67027 10.1503 3.81027C11.4303 2.95027 12.9903 2.61026 14.4303 2.01026C15.8703 1.41026 17.2603 0.890263 18.7903 0.580263C20.3203 0.270263 21.7903 0.000276864 23.3703 0.000276864C24.9503 0.000276864 26.5203 -0.0197244 28.0103 0.280276C29.5003 0.580276 31.0203 1.13028 32.4403 1.72028C33.8603 2.31028 35.4003 2.84026 36.6803 3.70026C37.9603 4.56026 38.9903 5.82028 40.0803 6.91028C41.1703 8.00028 42.3203 9.09028 43.1903 10.3803C44.0603 11.6703 44.8603 13.0303 45.4603 14.4703C46.0603 15.9103 46.2503 17.4703 46.5503 19.0103C46.8503 20.5503 46.9902 22.0403 46.9902 23.6203C46.9902 25.2003 47.0103 26.7703 46.7103 28.2603C46.4103 29.7503 45.6803 31.2003 45.0903 32.6103C44.5003 34.0203 43.9003 35.4803 43.0403 36.7603C42.1803 38.0403 41.4003 39.4603 40.3103 40.5603C39.2203 41.6603 37.9303 42.6203 36.6403 43.4803C35.3503 44.3403 33.9603 45.1203 32.5203 45.7203C31.0803 46.3203 29.5003 46.4003 27.9603 46.7103C26.4203 47.0203 24.9503 47.2203 23.3703 47.2203L23.3803 47.2103ZM23.3803 7.41028C21.9403 7.41028 20.4603 7.37026 19.1203 7.73026C17.7803 8.09026 16.4502 8.83028 15.2402 9.53028C14.0302 10.2303 12.7903 11.0503 11.8003 12.0403C10.8103 13.0303 9.93029 14.2203 9.22029 15.4403C8.51029 16.6603 8.07027 18.0403 7.70027 19.4103C7.34027 20.7403 6.9803 22.1603 6.9803 23.6103C6.9803 25.0603 7.30029 26.4903 7.66029 27.8203C8.02029 29.1503 8.45028 30.6103 9.15028 31.8203C9.85028 33.0303 10.8103 34.1803 11.8103 35.1703C12.8103 36.1603 13.9703 37.0603 15.1903 37.7703C16.4103 38.4803 17.7503 39.0603 19.1303 39.4303C20.5103 39.8003 21.9303 39.4303 23.3703 39.4303C24.8103 39.4303 26.1803 39.4003 27.5103 39.0403C28.8403 38.6803 30.3803 38.5203 31.5803 37.8203C32.7803 37.1203 33.9103 36.1303 34.9103 35.1403C35.9103 34.1503 36.6803 32.9203 37.3903 31.6903C38.1003 30.4603 38.4703 29.1203 38.8403 27.7403C39.2103 26.3603 39.4803 25.0403 39.4803 23.5903C39.4803 22.1403 39.0403 20.8203 38.6803 19.4903C38.3203 18.1603 38.0703 16.7203 37.3703 15.5103C36.6703 14.3003 35.6503 13.3003 34.6603 12.3003C33.6703 11.3003 32.5403 10.5303 31.3203 9.82025C30.1003 9.11025 28.9403 8.33027 27.5603 7.96027C26.1803 7.59027 24.8203 7.39026 23.3703 7.39026L23.3803 7.41028Z" fill="#2D2218"/>
<path d="M32.3802 15.4503C30.9902 14.9003 29.3003 14.9303 27.7903 14.7403C26.0003 14.5103 24.3403 14.4903 23.2103 14.5103C21.7003 14.5303 20.2502 14.7103 18.8902 14.9003C17.2802 15.1203 15.7703 15.1703 14.5903 15.5803C12.8203 16.2003 11.7702 18.2703 12.3902 20.0403C12.8102 21.2603 14.1202 22.0003 15.3102 22.2003C15.8602 24.2303 15.0602 24.3403 15.0602 26.4403C15.0602 28.5403 15.1902 28.5403 15.1902 30.6403C15.1902 31.8703 16.1602 32.7703 17.3902 32.7703C19.3702 32.7703 19.3703 32.7503 21.3603 32.7503C23.3503 32.7503 23.3503 32.7303 25.3303 32.7303C27.3103 32.7303 27.3203 32.6203 29.3003 32.6203C30.5303 32.6203 31.3702 31.8703 31.3702 30.6403C31.3702 28.5403 31.3202 28.5403 31.3202 26.4403C31.3202 24.3403 30.7002 24.2003 31.2402 22.1703C32.4102 22.0003 33.8602 21.3503 34.3202 20.1803C35.0102 18.4303 34.1302 16.1603 32.3902 15.4703L32.3802 15.4503Z" fill="#2D2218"/>
</g>
<defs>
<clipPath id="clip0_131_33">
<rect width="47" height="48" fill="white"/>
</clipPath>
</defs>
</svg>
